<?xml version="1.0" encoding="UTF-8" standalone="no"?>
<!DOCTYPE svg PUBLIC "-//W3C//DTD SVG 1.1//EN" "http://www.w3.org/Graphics/SVG/1.1/DTD/svg11.dtd">
<svg width="100%" height="100%" viewBox="0 0 100 100" version="1.1" xmlns="http://www.w3.org/2000/svg" xmlns:xlink="http://www.w3.org/1999/xlink" xml:space="preserve" xmlns:serif="http://www.serif.com/" style="fill-rule:evenodd;clip-rule:evenodd;stroke-linejoin:round;stroke-miterlimit:2;">
    <path id="AIM" d="M60.457,62.772C69.789,67.31 79.587,75.642 83.578,85.275C78.459,89.423 77.793,89.941 71.777,95C65.982,83.845 58.878,86.435 49.283,83.974C43.65,91.234 34.566,90.972 20.226,94.887C17.03,88.122 16.159,86.21 14,81.106C25.469,78.448 -6.78,57.603 13.956,38.115C23.631,29.023 33.264,40.841 46.588,33.041C50.94,34.468 58.138,38.761 60.186,39.411C59.896,40.736 60.85,42.241 64.364,43.011C67.03,43.595 73.302,44.516 79.354,39.025C83.065,44.73 86,50.244 86,50.244C86,50.244 74.415,61.749 60.705,58.137C60.612,59.925 60.545,60.494 60.457,62.772ZM62.736,34.9C56.399,31.909 49.871,29.17 49.871,22.1C49.871,15.029 55.729,9.299 62.736,9.299C69.739,9.299 77.738,15.332 75.689,22.1C71.987,34.326 67.967,37.369 62.736,34.9Z"/>
</svg>
