<?xml version="1.0" encoding="UTF-8" standalone="no"?>
<!DOCTYPE svg PUBLIC "-//W3C//DTD SVG 1.1//EN" "http://www.w3.org/Graphics/SVG/1.1/DTD/svg11.dtd">
<svg width="100%" height="100%" viewBox="0 0 100 100" version="1.1" xmlns="http://www.w3.org/2000/svg" xmlns:xlink="http://www.w3.org/1999/xlink" xml:space="preserve" xmlns:serif="http://www.serif.com/" style="fill-rule:evenodd;clip-rule:evenodd;stroke-linejoin:round;stroke-miterlimit:2;">
    <path id="Amazon" d="M67.792,35.692C71.887,32.228 72.201,24.524 72.291,21.241L72.291,20.694C72.291,19.96 72.11,19.419 71.932,19.145C71.112,18.144 65.1,17.228 59.916,18.778C58.46,19.239 57.184,19.873 56.001,20.694C55.091,21.335 55.273,22.148 56.183,22.061C57.184,21.875 58.46,21.789 59.916,21.6C63.101,21.334 66.833,21.241 67.742,22.423C69.012,23.97 67.701,32.134 66.514,35.052C66.155,35.968 66.972,36.333 67.792,35.692ZM5.451,43.95C17.189,54.616 32.659,61 49.954,61C54.654,61 59.666,60.423 64.619,59.294C70.984,57.842 77.25,55.477 82.625,52.248C83.901,51.513 85.171,50.693 86.354,49.785C87.993,48.603 86.537,46.774 84.898,47.501C84.171,47.775 83.351,48.143 82.626,48.416C72.155,52.522 61.151,54.437 50.954,54.437C37.723,54.437 24.859,51.455 13.696,46.34C11.191,45.192 8.77,43.937 6.451,42.583C5.268,41.948 4.447,43.128 5.451,43.95Z" style="fill:rgb(255,0,0);fill-rule:nonzero;"/>
</svg>
