<?xml version="1.0" encoding="UTF-8" standalone="no"?>
<!DOCTYPE svg PUBLIC "-//W3C//DTD SVG 1.1//EN" "http://www.w3.org/Graphics/SVG/1.1/DTD/svg11.dtd">
<svg width="100%" height="100%" viewBox="0 0 100 100" version="1.1" xmlns="http://www.w3.org/2000/svg" xmlns:xlink="http://www.w3.org/1999/xlink" xml:space="preserve" xmlns:serif="http://www.serif.com/" style="fill-rule:evenodd;clip-rule:evenodd;stroke-linejoin:round;stroke-miterlimit:2;">
    <path id="App_Store" d="M41.373,64.147L34.486,68.813C33.559,69.443 32.904,69.044 33.032,67.932L33.951,59.948C34.079,58.836 34.981,58.382 35.956,58.938L41.286,61.983C42.26,62.541 42.3,63.519 41.373,64.147ZM29.504,36.112L20.462,43.39C19.487,42.833 20.627,31.041 20.627,31.041C21.187,30.069 22.449,29.728 23.423,30.292L28.753,33.33C29.728,33.894 30.063,35.143 29.504,36.112ZM43.247,61.175L30.207,44.892L35.617,44.892L43.247,61.175ZM51.413,66.034C49.28,64.969 38.653,40.558 35.929,34.189C33.204,27.82 24.974,10.866 27.636,9.547C29.53,8.601 36.329,21.951 41.426,29.966C46.516,37.981 57.159,58.647 58.469,61C59.772,63.36 57.215,65.326 55.793,65.915C54.37,66.504 53.546,67.091 51.413,66.034ZM70.214,90.5C69.543,88.361 64.421,88.219 62.128,84.997C59.827,81.786 61.729,80.132 62.528,79.368C71.828,74.153 70.214,90.5 70.214,90.5ZM97,59.139C97,60.262 96.081,61.175 94.955,61.175L62.152,61.175C62.033,60.547 61.84,59.919 61.513,59.33C61.233,58.829 60.522,57.478 59.531,55.594C58.101,52.875 56.048,48.987 53.85,44.892L94.954,44.892C96.08,44.892 96.999,45.807 96.999,46.926L96.999,59.139L97,59.139Z" style="fill-rule:nonzero;"/>
</svg>
