<?xml version="1.0" encoding="UTF-8" standalone="no"?>
<!DOCTYPE svg PUBLIC "-//W3C//DTD SVG 1.1//EN" "http://www.w3.org/Graphics/SVG/1.1/DTD/svg11.dtd">
<svg width="100%" height="100%" viewBox="0 0 100 100" version="1.1" xmlns="http://www.w3.org/2000/svg" xmlns:xlink="http://www.w3.org/1999/xlink" xml:space="preserve" xmlns:serif="http://www.serif.com/" style="fill-rule:evenodd;clip-rule:evenodd;stroke-linejoin:round;stroke-miterlimit:2;">
    <path id="Arto" d="M73.477,51.568C70.553,51.73 67.958,51.73 67.958,51.73L67.955,26.623C67.955,26.623 67.142,19.86 60.643,24.529L26.377,64.77C26.377,64.77 24.104,68.149 26.377,68.788C26.377,68.788 28.65,70.563 30.6,69.755C32.224,68.31 39.532,58.489 58.211,56.337C58.049,66.058 58.373,79.735 58.373,79.735C58.373,79.735 63.57,85.208 68.603,79.735C68.603,74.131 68.441,56.29 68.441,54.145C68.8,54.227 70.138,53.786 73.638,53.346C73.639,53.346 76.403,52.531 73.477,51.568ZM59.023,51.73C59.023,51.73 51.224,52.375 48.138,52.525C45.052,52.679 47.325,51.087 47.325,51.087L59.022,38.048L59.022,51.73L59.023,51.73Z" style="fill:rgb(255,0,0);fill-rule:nonzero;"/>
</svg>
