<?xml version="1.0" encoding="UTF-8" standalone="no"?>
<!DOCTYPE svg PUBLIC "-//W3C//DTD SVG 1.1//EN" "http://www.w3.org/Graphics/SVG/1.1/DTD/svg11.dtd">
<svg width="100%" height="100%" viewBox="0 0 100 100" version="1.1" xmlns="http://www.w3.org/2000/svg" xmlns:xlink="http://www.w3.org/1999/xlink" xml:space="preserve" xmlns:serif="http://www.serif.com/" style="fill-rule:evenodd;clip-rule:evenodd;stroke-linejoin:round;stroke-miterlimit:2;">
    <path id="Baidu" d="M29.013,38.588C29.548,46.238 25.402,52.761 19.749,53.158C14.098,53.554 9.082,47.675 8.547,40.023C8.012,32.373 12.158,25.849 17.811,25.452C23.463,25.056 28.479,30.937 29.013,38.588ZM67.939,6.874C62.448,5.473 56.465,10.363 54.576,17.795C52.682,25.227 55.6,32.387 61.091,33.788C66.58,35.188 72.566,30.3 74.455,22.867C76.915,13.194 69.255,7.208 67.939,6.874ZM80.813,31.925C75.037,32.011 70.454,37.504 70.581,46.013C70.707,54.521 75.485,58.4 81.265,58.314C87.038,58.228 91.623,54.212 91.498,45.7C91.331,34.626 82.196,31.905 80.813,31.925ZM38.966,5C33.47,5 29.015,11.16 29.015,18.756C29.015,26.352 33.47,32.509 38.966,32.509C44.462,32.509 48.918,26.352 48.918,18.756C48.918,11.16 44.462,5 38.966,5ZM75.524,63.875C70.578,59.529 61.623,95 71.256,95C80.891,95 84.914,85.883 84.914,79.947C84.914,74.011 83.242,70.65 75.524,63.875Z" style="fill-rule:nonzero;"/>
</svg>
