<?xml version="1.0" encoding="UTF-8" standalone="no"?>
<!DOCTYPE svg PUBLIC "-//W3C//DTD SVG 1.1//EN" "http://www.w3.org/Graphics/SVG/1.1/DTD/svg11.dtd">
<svg width="100%" height="100%" viewBox="0 0 100 100" version="1.1" xmlns="http://www.w3.org/2000/svg" xmlns:xlink="http://www.w3.org/1999/xlink" xml:space="preserve" xmlns:serif="http://www.serif.com/" style="fill-rule:evenodd;clip-rule:evenodd;stroke-linejoin:round;stroke-miterlimit:2;">
    <path id="Basecamp" d="M5.378,60.161C6.011,61.095 6.695,61.993 7.424,62.854C8.881,64.571 10.523,66.127 12.299,67.508C16.079,70.443 20.439,72.549 24.969,74.031C30.209,75.749 35.69,76.665 41.172,77.121C47.531,77.65 53.976,77.643 60.321,76.976C66.199,76.358 72.055,75.136 77.562,72.948C82.437,71.01 86.921,68.243 90.841,64.744C91.854,63.836 92.835,62.867 93.643,61.765C94.325,60.834 94.872,59.805 94.97,58.637C95.082,57.268 94.857,55.875 94.587,54.539C94.287,53.058 93.893,51.6 93.52,50.137C93.382,49.604 93.25,49.071 93.13,48.535C91.692,42.196 89.496,36.023 86.514,30.249C83.987,25.357 80.868,20.738 77.248,16.592C73.867,12.719 69.933,9.332 65.416,6.864C63.017,5.554 60.48,4.509 57.867,3.725C56.455,3.3 55.019,2.951 53.572,2.669C53.201,2.596 52.826,2.502 52.448,2.502L48.253,2.502C47.833,2.502 47.409,2.482 46.991,2.533C46.606,2.579 46.221,2.634 45.836,2.697C45.103,2.817 44.374,2.963 43.65,3.136C42.215,3.481 40.804,3.931 39.43,4.471C36.683,5.551 34.08,6.988 31.652,8.663C26.907,11.935 22.786,16.1 19.317,20.696C15.639,25.571 12.701,30.99 10.431,36.656C8.018,42.682 6.352,48.996 5.322,55.405C5.191,56.229 5,57.083 5,57.916L5,59.257C5,59.472 4.995,59.587 5.113,59.765C5.201,59.897 5.287,60.028 5.378,60.161ZM11.243,56.187C11.319,55.763 11.408,55.342 11.506,54.923C11.693,54.137 11.918,53.36 12.181,52.593C13.189,49.646 14.712,46.912 16.346,44.273C17.159,42.964 17.99,41.668 18.817,40.369C19.661,39.042 20.522,37.723 21.491,36.484C23.063,34.472 24.997,32.303 27.504,31.493C31.027,30.356 33.662,34.023 35.7,36.287C36.86,37.572 38.109,38.925 39.706,39.658C40.442,39.996 41.244,40.17 42.054,40.12C43.235,40.045 44.282,39.234 45.16,38.505C47.566,36.509 49.529,33.987 51.403,31.502C53.454,28.782 55.435,26.005 57.781,23.527C58.743,22.512 59.768,21.165 61.146,20.716C61.775,20.511 62.461,20.574 63.06,20.85C63.388,21.001 63.688,21.214 63.948,21.466C64.243,21.752 64.594,21.977 64.923,22.225C67.44,24.13 69.768,26.282 71.968,28.545C73.882,30.513 75.699,32.573 77.439,34.699C79.134,36.776 80.765,38.891 82.168,41.184C83.873,43.977 85.315,46.914 86.903,49.773C88.352,52.381 89.817,55.397 88.37,58.338C88.294,58.493 88.211,58.649 88.122,58.797C85.554,63.142 80.92,65.848 76.345,67.619C70.835,69.75 64.903,70.765 59.031,71.176C52.962,71.602 46.819,71.582 40.76,71.014C35.284,70.5 29.77,69.525 24.618,67.535C20.312,65.872 16.161,63.414 13.281,59.724C12.609,58.863 12.013,57.943 11.506,56.974C11.446,56.859 11.386,56.741 11.326,56.622C11.241,56.45 11.209,56.38 11.243,56.187Z" style="fill-rule:nonzero;"/>
    <g id="Layer1">
        <g transform="matrix(1,0,0,1,-7.07755,-1.11941)">
            <ellipse cx="67.163" cy="47.001" rx="7.126" ry="12.05"/>
        </g>
        <g transform="matrix(1,0,0,1,-33.9479,-1.53114)">
            <ellipse cx="67.163" cy="47.001" rx="7.126" ry="12.05"/>
        </g>
    </g>
</svg>
