<?xml version="1.0" encoding="UTF-8" standalone="no"?>
<!DOCTYPE svg PUBLIC "-//W3C//DTD SVG 1.1//EN" "http://www.w3.org/Graphics/SVG/1.1/DTD/svg11.dtd">
<svg width="100%" height="100%" viewBox="0 0 100 100" version="1.1" xmlns="http://www.w3.org/2000/svg" xmlns:xlink="http://www.w3.org/1999/xlink" xml:space="preserve" xmlns:serif="http://www.serif.com/" style="fill-rule:evenodd;clip-rule:evenodd;stroke-linejoin:round;stroke-miterlimit:2;">
    <path id="Bebo" d="M54.5,95L45.5,95C25.646,95 9.5,78.846 9.5,59L9.5,14C9.5,9.025 13.525,5 18.5,5C23.466,5 27.5,9.025 27.5,14L27.5,59C27.5,68.923 35.577,77 45.5,77L54.5,77C64.423,77 72.5,69.934 72.5,61.25C72.5,52.373 67.657,45.5 63.5,45.5L45.5,45.5C40.525,45.5 36.5,41.466 36.5,36.5C36.5,31.525 40.525,27.5 45.5,27.5L63.5,27.5C78.389,27.5 90.5,42.635 90.5,61.25C90.5,79.856 74.346,95 54.5,95Z" style="fill:rgb(255,0,0);fill-rule:nonzero;"/>
</svg>
