<?xml version="1.0" encoding="UTF-8" standalone="no"?>
<!DOCTYPE svg PUBLIC "-//W3C//DTD SVG 1.1//EN" "http://www.w3.org/Graphics/SVG/1.1/DTD/svg11.dtd">
<svg width="100%" height="100%" viewBox="0 0 100 100" version="1.1" xmlns="http://www.w3.org/2000/svg" xmlns:xlink="http://www.w3.org/1999/xlink" xml:space="preserve" xmlns:serif="http://www.serif.com/" style="fill-rule:evenodd;clip-rule:evenodd;stroke-linejoin:round;stroke-miterlimit:2;">
    <path id="Bing" d="M5,25L5,59.064L5.063,59.064C5.735,75.675 25.565,89 50,89C74.856,89 95,75.217 95,58.21C95,41.204 74.856,27.421 50,27.421C39.126,27.421 29.146,30.063 21.364,34.461L21.364,25L5,25ZM50,37.685C65.82,37.685 78.636,46.873 78.636,58.21C78.636,69.549 65.821,78.737 50,78.737C34.187,78.737 21.364,69.549 21.364,58.21C21.364,46.873 34.188,37.685 50,37.685ZM31.071,58.21C31.071,50.713 68.929,50.713 68.929,58.21C68.929,65.704 31.071,65.704 31.071,58.21Z" style="fill-rule:nonzero;"/>
</svg>
