<?xml version="1.0" encoding="UTF-8" standalone="no"?>
<!DOCTYPE svg PUBLIC "-//W3C//DTD SVG 1.1//EN" "http://www.w3.org/Graphics/SVG/1.1/DTD/svg11.dtd">
<svg width="100%" height="100%" viewBox="0 0 100 100" version="1.1" xmlns="http://www.w3.org/2000/svg" xmlns:xlink="http://www.w3.org/1999/xlink" xml:space="preserve" xmlns:serif="http://www.serif.com/" style="fill-rule:evenodd;clip-rule:evenodd;stroke-linejoin:round;stroke-miterlimit:2;">
    <path id="Blogger" d="M66.296,95C81.988,95 94.735,82.217 94.823,66.611L95,43.633L94.735,42.383L93.981,40.81L92.706,39.824C91.05,38.525 82.659,39.912 80.4,37.86C78.797,36.396 78.547,33.751 78.062,30.166C77.161,23.223 76.592,22.861 75.504,20.507C71.554,12.149 49.933,4.919 33.523,5C17.113,5.081 5,17.802 5,33.438L5,66.611C5,82.217 17.83,95 33.523,95L66.296,95ZM33.886,28.233L49.701,28.233C52.72,28.233 55.166,30.684 55.166,33.663C55.166,36.63 52.72,39.101 49.701,39.101L33.886,39.101C30.866,39.101 28.426,36.629 28.426,33.663C28.426,30.684 30.866,28.233 33.886,28.233ZM28.426,66.191C28.426,63.213 30.866,60.78 33.886,60.78L66.021,60.78C69.021,60.78 71.457,63.213 71.457,66.191C71.457,69.13 69.021,71.601 66.021,71.601L33.886,71.601C30.866,71.602 28.426,69.13 28.426,66.191Z" style="fill:rgb(255,0,0);fill-rule:nonzero;"/>
</svg>
