<?xml version="1.0" encoding="UTF-8" standalone="no"?>
<!DOCTYPE svg PUBLIC "-//W3C//DTD SVG 1.1//EN" "http://www.w3.org/Graphics/SVG/1.1/DTD/svg11.dtd">
<svg width="100%" height="100%" viewBox="0 0 100 100" version="1.1" xmlns="http://www.w3.org/2000/svg" xmlns:xlink="http://www.w3.org/1999/xlink" xml:space="preserve" xmlns:serif="http://www.serif.com/" style="fill-rule:evenodd;clip-rule:evenodd;stroke-linejoin:round;stroke-miterlimit:2;">
    <path id="Cinch" d="M89.5,23.882C89.5,31.874 79.931,40.115 71.68,41.448C63.429,42.781 63.327,50.021 63.327,50.021L63.327,42.704C62.695,42.731 62.062,42.767 61.422,42.767C45.912,42.767 76.11,42.56 76.11,23.811C76.11,5.062 45.912,5 61.422,5C76.929,5 89.5,13.454 89.5,23.882ZM41.379,42.087C26.535,42.087 14.5,53.932 14.5,68.544C14.5,83.154 26.535,95 41.379,95L43.738,95C43.86,95 53.976,94.982 54.098,94.981L54.098,80.824L46.42,80.824C46.42,80.824 32.259,82.009 32.018,68.543C32.259,55.076 46.42,56.262 46.42,56.262C46.42,56.262 54.099,56.183 54.099,52.262L54.099,42.105C53.977,42.104 43.861,42.087 43.739,42.087L41.379,42.087Z" style="fill-rule:nonzero;"/>
</svg>
