<?xml version="1.0" encoding="UTF-8" standalone="no"?>
<!DOCTYPE svg PUBLIC "-//W3C//DTD SVG 1.1//EN" "http://www.w3.org/Graphics/SVG/1.1/DTD/svg11.dtd">
<svg width="100%" height="100%" viewBox="0 0 100 100" version="1.1" xmlns="http://www.w3.org/2000/svg" xmlns:xlink="http://www.w3.org/1999/xlink" xml:space="preserve" xmlns:serif="http://www.serif.com/" style="fill-rule:evenodd;clip-rule:evenodd;stroke-linejoin:round;stroke-miterlimit:2;">
    <path id="CloudApp" d="M24.124,82.441L24.118,82.462L24.578,82.462C24.816,82.472 25.051,82.499 25.291,82.499C25.533,82.499 25.767,82.472 26.005,82.462L71.108,82.462L71.108,82.45C71.438,82.462 71.76,82.499 72.092,82.499C84.744,82.499 95.001,72.159 95.001,59.405C95.001,46.649 84.744,36.31 72.092,36.31C71.626,36.31 71.169,36.352 70.709,36.38C68.743,25.642 59.422,17.5 48.199,17.5C35.548,17.5 25.291,27.84 25.291,40.595C25.291,40.93 25.327,41.259 25.341,41.591C25.324,41.591 25.309,41.589 25.291,41.589C14.086,41.589 5.001,50.746 5.001,62.044C5.001,72.943 13.465,81.828 24.124,82.441Z" style="fill-rule:nonzero;"/>
</svg>
