<?xml version="1.0" encoding="UTF-8" standalone="no"?>
<!DOCTYPE svg PUBLIC "-//W3C//DTD SVG 1.1//EN" "http://www.w3.org/Graphics/SVG/1.1/DTD/svg11.dtd">
<svg width="100%" height="100%" viewBox="0 0 100 100" version="1.1" xmlns="http://www.w3.org/2000/svg" xmlns:xlink="http://www.w3.org/1999/xlink" xml:space="preserve" xmlns:serif="http://www.serif.com/" style="fill-rule:evenodd;clip-rule:evenodd;stroke-linejoin:round;stroke-miterlimit:2;">
    <path id="Creative_Commons" d="M48.983,49.543C48.983,35.4 58.398,27.044 70.228,27.044C78.355,27.044 85.354,30.017 89.459,37.489L79.807,42.551C77.552,37.729 73.687,36.685 71.756,36.685C64.598,36.685 62.019,42.23 62.019,49.543C62.019,56.858 65.219,61.038 71.756,62.402C84.612,65.083 89.704,60.714 89.704,60.714C85.841,67.543 78.838,72.042 70.632,72.042C57.835,72.044 48.983,63.93 48.983,49.543ZM30.946,72.044C39.151,72.044 46.156,67.544 50.017,60.715L47.448,60.857C45.435,65.677 21.044,64.443 22.335,49.545C22.966,42.261 24.911,36.686 32.072,36.686C34.002,36.686 37.865,37.731 40.12,42.553L49.772,37.491C45.671,30.017 38.668,27.046 30.541,27.046C18.711,27.046 9.296,35.401 9.296,49.545C9.298,63.93 18.145,72.044 30.946,72.044ZM18.209,81.687C9.565,73.055 5,61.959 5,50C5,38.165 9.689,26.823 18.331,18.069C26.728,9.563 37.593,5 49.938,5C62.283,5 73.395,9.563 82.039,18.192C90.558,26.7 95,37.796 95,50C95,62.33 90.558,73.301 82.161,81.562C73.272,90.315 61.791,95 49.938,95C38.087,95 26.85,90.315 18.209,81.687ZM7.146,50C7.146,70.351 24.192,86.74 50.063,86.74C59.692,86.74 69.075,82.919 76.361,75.768C83.271,68.986 86.854,60.11 86.854,50C86.854,40.014 85.15,30.892 78.236,23.986C76.05,21.804 73.674,19.449 71.134,17.239C65.494,12.331 57.043,8.138 50.063,8.138C39.939,8.138 32.026,13.925 25.112,20.951C18.076,28.102 7.146,28.109 7.146,50Z" style="fill-rule:nonzero;"/>
</svg>
