<?xml version="1.0" encoding="UTF-8" standalone="no"?>
<!DOCTYPE svg PUBLIC "-//W3C//DTD SVG 1.1//EN" "http://www.w3.org/Graphics/SVG/1.1/DTD/svg11.dtd">
<svg width="100%" height="100%" viewBox="0 0 100 100" version="1.1" xmlns="http://www.w3.org/2000/svg" xmlns:xlink="http://www.w3.org/1999/xlink" xml:space="preserve" xmlns:serif="http://www.serif.com/" style="fill-rule:evenodd;clip-rule:evenodd;stroke-linejoin:round;stroke-miterlimit:2;">
    <path id="Dailybooth" d="M18.788,41.014L30.516,38.258C33.841,31.843 40.533,27.458 48.258,27.458C52.672,27.458 56.75,28.893 60.057,31.319L71.416,28.649C74.098,28.021 76.843,29.957 77.552,32.977L85.221,65.626C85.93,68.648 84.334,71.604 81.655,72.235L29.028,84.598C26.348,85.229 23.602,83.291 22.892,80.27L15.221,47.62C14.512,44.602 16.109,41.644 18.788,41.014ZM51.086,70.268C58.918,70.268 65.269,63.917 65.269,56.083C65.269,48.251 58.918,41.901 51.086,41.901C43.251,41.901 36.899,48.251 36.899,56.083C36.899,63.917 43.251,70.268 51.086,70.268Z" style="fill-rule:nonzero;"/>
</svg>
