<?xml version="1.0" encoding="UTF-8" standalone="no"?>
<!DOCTYPE svg PUBLIC "-//W3C//DTD SVG 1.1//EN" "http://www.w3.org/Graphics/SVG/1.1/DTD/svg11.dtd">
<svg width="100%" height="100%" viewBox="0 0 100 100" version="1.1" xmlns="http://www.w3.org/2000/svg" xmlns:xlink="http://www.w3.org/1999/xlink" xml:space="preserve" xmlns:serif="http://www.serif.com/" style="fill-rule:evenodd;clip-rule:evenodd;stroke-linejoin:round;stroke-miterlimit:2;">
    <path id="Delicious" d="M91.463,32.482C88.044,24.403 82.341,17.539 75.163,12.688C71.572,10.261 67.61,8.337 63.382,7.023C59.149,5.708 54.655,4.997 50.002,5C43.797,4.997 37.869,6.259 32.485,8.538C24.405,11.955 17.537,17.658 12.686,24.838C10.261,28.429 8.338,32.39 7.023,36.621C5.706,40.85 4.999,45.349 5,50.001C4.999,56.205 6.259,62.134 8.538,67.52C11.955,75.597 17.659,82.461 24.838,87.314C28.428,89.741 32.389,91.659 36.622,92.977C40.851,94.295 45.349,95 50.002,95C56.204,95 62.133,93.743 67.517,91.465C75.598,88.046 82.462,82.346 87.315,75.165C89.739,71.571 91.662,67.609 92.977,63.38C94.293,59.152 95,54.654 95,50.001C95.002,43.795 93.743,37.869 91.463,32.482ZM88.913,50.001C88.913,52.612 90.52,73.218 81.605,82.038C72.147,91.394 52.079,88.912 50.002,88.915L49.998,88.915L49.998,50.044L11.087,50.044L11.087,50.001C11.087,47.285 10.128,26.088 19.446,16.962C28.593,8.003 48.002,11.087 50.002,11.087L50.002,50.001L88.913,50.001Z" style="fill-rule:nonzero;"/>
</svg>
