<?xml version="1.0" encoding="UTF-8" standalone="no"?>
<!DOCTYPE svg PUBLIC "-//W3C//DTD SVG 1.1//EN" "http://www.w3.org/Graphics/SVG/1.1/DTD/svg11.dtd">
<svg width="100%" height="100%" viewBox="0 0 100 100" version="1.1" xmlns="http://www.w3.org/2000/svg" xmlns:xlink="http://www.w3.org/1999/xlink" xml:space="preserve" xmlns:serif="http://www.serif.com/" style="fill-rule:evenodd;clip-rule:evenodd;stroke-linejoin:round;stroke-miterlimit:2;">
    <path id="DesignFloat" d="M67.973,30.737C65.397,29.164 56,18.967 56,18.967C68,21.738 76.652,30 79.411,43C79.411,43 75.515,35.343 67.973,30.737ZM30.771,28.428C36.038,26.576 43,18.967 43,18.967C29,21.738 21.646,30 18.886,43C18.886,43 22.445,31.356 30.771,28.428ZM43,79.74C43,79.74 32.928,70.706 28.122,67.318C22.361,63.257 18.886,55 18.886,55C21.649,70 29,76.971 43,79.74ZM67.288,49.36C67.272,59.413 31.027,59.413 31.008,49.36C31.027,39.295 39.13,31.16 49.15,31.14C59.173,31.16 67.272,39.294 67.288,49.36ZM63.26,49.36C63.26,41.533 56.947,35.185 49.154,35.185C41.361,35.185 35.042,41.533 35.042,49.36C35.042,57.182 63.26,57.183 63.26,49.36ZM68.103,66.61C63.455,69.998 56,79.741 56,79.741C68,76.971 76.652,70 79.411,55C79.411,55 73.674,62.549 68.103,66.61ZM90.203,72.673C87.768,72.673 85.792,74.655 85.792,77.101C85.792,79.547 87.769,81.529 90.203,81.529C92.637,81.529 94.606,79.547 94.606,77.101C94.606,74.655 92.637,72.673 90.203,72.673ZM79.547,83.959C76.432,83.959 73.912,86.489 73.912,89.618C73.912,92.738 76.432,95.274 79.547,95.274C82.654,95.274 85.181,92.738 85.181,89.618C85.181,86.489 82.654,83.959 79.547,83.959ZM10.813,88.232C9.247,88.232 7.982,89.506 7.982,91.073C7.982,92.648 9.247,93.923 10.813,93.923C12.373,93.923 13.642,92.649 13.642,91.073C13.643,89.507 12.373,88.232 10.813,88.232ZM9.923,73.282C8.428,73.282 7.216,74.493 7.216,75.995C7.216,77.49 8.428,78.712 9.923,78.712C11.419,78.712 12.624,77.49 12.624,75.995C12.624,74.493 11.419,73.282 9.923,73.282ZM18.762,80.124C16.761,80.124 15.136,81.755 15.136,83.766C15.136,85.781 16.761,87.407 18.762,87.407C20.77,87.407 22.389,85.781 22.389,83.766C22.389,81.755 20.77,80.124 18.762,80.124ZM90.231,24.983C89.189,24.983 88.347,25.828 88.347,26.881C88.347,27.921 89.189,28.774 90.231,28.774C91.278,28.774 92.122,27.921 92.122,26.881C92.122,25.828 91.278,24.983 90.231,24.983ZM7.792,17.019C6.038,17.019 4.606,18.45 4.606,20.218C4.606,21.979 6.038,23.41 7.792,23.41C9.553,23.41 10.979,21.978 10.979,20.218C10.979,18.449 9.553,17.019 7.792,17.019ZM15.103,5.274C12.888,5.274 11.101,7.069 11.101,9.293C11.101,11.51 12.888,13.304 15.103,13.304C17.312,13.304 19.1,11.51 19.1,9.293C19.1,7.069 17.312,5.274 15.103,5.274ZM8.832,30.172C7.721,30.172 6.824,31.075 6.824,32.189C6.824,33.299 7.72,34.205 8.832,34.205C9.941,34.205 10.842,33.3 10.842,32.189C10.842,31.075 9.941,30.172 8.832,30.172Z" style="fill-rule:nonzero;"/>
</svg>
