<?xml version="1.0" encoding="UTF-8" standalone="no"?>
<!DOCTYPE svg PUBLIC "-//W3C//DTD SVG 1.1//EN" "http://www.w3.org/Graphics/SVG/1.1/DTD/svg11.dtd">
<svg width="100%" height="100%" viewBox="0 0 100 100" version="1.1" xmlns="http://www.w3.org/2000/svg" xmlns:xlink="http://www.w3.org/1999/xlink" xml:space="preserve" xmlns:serif="http://www.serif.com/" style="fill-rule:evenodd;clip-rule:evenodd;stroke-linejoin:round;stroke-miterlimit:2;">
    <path id="Designmoo" d="M65.934,59.191C65.387,59.191 65.171,59.418 64.726,59.854C63.934,60.842 62.477,62.706 60.026,65.116C55.992,69.196 53.208,71.189 51.353,71.189L50.939,71.153C49.638,70.832 49.431,69.727 49.452,68.627C49.482,67.203 49.941,65.894 50.308,64.585C53.328,55.354 57.754,46.813 61.541,37.927C63.603,33.198 65.981,28.585 67.607,23.761C68.305,22.014 68.781,20.038 68.815,18.18C68.877,15.103 66.827,13.242 64.323,12.693L63.944,12.634C63.379,12.634 63.688,13.261 63.19,15.427C62.938,16.85 62.471,18.275 62.01,19.698C59.909,26.401 56.611,32.436 53.656,38.363L52.755,40.108L52.654,39.444C52.056,36.047 48.387,33.976 44.998,33.976C40.188,33.976 36.196,36.938 32.836,40.222C28.494,44.494 25.089,50.306 23.358,55.583C20.21,65.664 19.187,78.292 30.557,78.5C33.626,78.5 37.282,76.315 40.754,71.929L41.415,71.153C41.414,71.266 41.405,71.589 41.399,71.819C41.339,75.004 40.901,93.586 46.012,100.306C48.314,103.335 88.614,100.62 99.956,100.336C100.009,100.335 100.671,92.49 100.898,92.238C100.642,92.183 67.162,65.234 66.311,62.818C66.535,62.265 66.682,60.518 66.686,60.197C66.701,59.531 66.371,59.191 65.934,59.191ZM42.121,63.254C40.433,66.216 37.977,68.852 36.19,70.394C35.149,71.227 34.178,71.588 33.307,71.588C31.206,71.588 29.791,69.406 29.928,66.216C30.202,58.109 33.959,49.772 39.462,43.299C41.126,41.416 42.931,39.12 45.656,39.12C47.965,39.12 49.13,40.544 49.079,43.183C48.939,50.306 45.855,57.121 42.121,63.254Z" style="fill-rule:nonzero;"/>
</svg>
