<?xml version="1.0" encoding="UTF-8" standalone="no"?>
<!DOCTYPE svg PUBLIC "-//W3C//DTD SVG 1.1//EN" "http://www.w3.org/Graphics/SVG/1.1/DTD/svg11.dtd">
<svg width="100%" height="100%" viewBox="0 0 100 100" version="1.1" xmlns="http://www.w3.org/2000/svg" xmlns:xlink="http://www.w3.org/1999/xlink" xml:space="preserve" xmlns:serif="http://www.serif.com/" style="fill-rule:evenodd;clip-rule:evenodd;stroke-linejoin:round;stroke-miterlimit:2;">
    <path id="deviantART" d="M35.418,33.698C35.155,33.739 34.926,33.802 34.664,33.847L16.92,0.773L12.534,18.383L22.726,37.236C-4.349,48.481 7.648,75 7.648,75L61.648,85.577L37.609,39.858C57.982,33.968 74.994,46.01 74.994,46.01L60.971,49.82L56.934,42.276C53.135,41.567 48.81,41.351 44.202,42.124L68.433,90.541L95,49.69C95,49.69 80.04,26.057 35.418,33.698ZM18.826,61.264C18.826,61.264 14.846,52.422 26.429,44.851L40.241,70.497L18.826,61.264Z" style="fill-rule:nonzero;"/>
</svg>
