<?xml version="1.0" encoding="UTF-8" standalone="no"?>
<!DOCTYPE svg PUBLIC "-//W3C//DTD SVG 1.1//EN" "http://www.w3.org/Graphics/SVG/1.1/DTD/svg11.dtd">
<svg width="100%" height="100%" viewBox="0 0 100 100" version="1.1" xmlns="http://www.w3.org/2000/svg" xmlns:xlink="http://www.w3.org/1999/xlink" xml:space="preserve" xmlns:serif="http://www.serif.com/" style="fill-rule:evenodd;clip-rule:evenodd;stroke-linejoin:round;stroke-miterlimit:2;">
    <path id="Digg" d="M20,3L20,19L4,19L4,82L29,82L29,3L20,3ZM13,74L13,27L20,27L20,74L13,74ZM32,19L41,19L41,82L32,82L32,19ZM32,3L41,3L41,9L32,9L32,3ZM69,19L45,19L45,82L60,82L60,89L60.007,98L69,98L69,19ZM54,74L54,27L60,27L60,74L54,74ZM96,19L72,19L72,82L88,82L88,89L87.744,98L96,98L96,19ZM88,74L81,74L81,27L88,27L88,74Z" style="fill:rgb(255,0,0);"/>
</svg>
