<?xml version="1.0" encoding="UTF-8" standalone="no"?>
<!DOCTYPE svg PUBLIC "-//W3C//DTD SVG 1.1//EN" "http://www.w3.org/Graphics/SVG/1.1/DTD/svg11.dtd">
<svg width="100%" height="100%" viewBox="0 0 100 100" version="1.1" xmlns="http://www.w3.org/2000/svg" xmlns:xlink="http://www.w3.org/1999/xlink" xml:space="preserve" xmlns:serif="http://www.serif.com/" style="fill-rule:evenodd;clip-rule:evenodd;stroke-linejoin:round;stroke-miterlimit:2;">
    <path id="Digg__x28_alt_x29_" d="M95,27.602L88.768,27.602L88.768,27.616L83.454,27.616L83.454,10L77.221,10L10.904,50.067L10.904,27.37L5,27.37L5,50.189L10.902,50.189L10.902,56.272L21.482,56.272L21.482,66.811L17.05,66.811L17.05,73.016L32.03,73.016L32.03,83.805L17.05,83.805L17.05,73.016L11.025,73.016L11.025,90L38.073,90L38.073,73.016L32.05,73.016L32.05,66.811L27.622,66.811L27.622,56.272L44.597,56.272L44.597,89.826L50.554,89.826L50.554,89.889L89.843,89.889L89.843,54.892L95,54.892L95,27.602ZM77.221,15.956L77.221,38.284L55.818,38.284L77.221,15.956ZM70.201,83.805L70.201,66.811L64.719,66.811L64.719,83.805L50.746,83.805L50.746,50.067L18.16,50.175L49.762,33.694L49.762,44.486L83.453,44.486L83.453,33.694L88.767,33.694L88.767,50.189L83.697,50.189L83.697,83.805L70.201,83.805ZM32.051,21.416L17.051,21.416L17.051,15.215L32.051,15.215L32.051,21.416ZM17.051,27.37L10.905,27.37L10.905,21.415L17.051,21.415L17.051,27.37Z"/>
</svg>
