<?xml version="1.0" encoding="UTF-8" standalone="no"?>
<!DOCTYPE svg PUBLIC "-//W3C//DTD SVG 1.1//EN" "http://www.w3.org/Graphics/SVG/1.1/DTD/svg11.dtd">
<svg width="100%" height="100%" viewBox="0 0 100 100" version="1.1" xmlns="http://www.w3.org/2000/svg" xmlns:xlink="http://www.w3.org/1999/xlink" xml:space="preserve" xmlns:serif="http://www.serif.com/" style="fill-rule:evenodd;clip-rule:evenodd;stroke-linejoin:round;stroke-miterlimit:2;">
    <path id="Diigo" d="M49.673,22.324C60.874,22.149 67.016,16.199 72.741,10.625L72.741,98.863L61.459,98.863C61.357,96.156 61.3,93.414 61.258,90.66L61.258,50.846C61.334,43.732 61.449,36.614 61.475,29.63C59.889,30.051 58.1,30.888 56.083,31.419C50.022,33.018 42.046,32.181 37.433,29.481C37.448,32.795 37.47,36.136 37.496,39.488L37.496,95.648C37.477,96.72 37.465,97.796 37.442,98.865L26.116,98.865L26.116,10.45C31.905,16.579 38.318,22.5 49.673,22.324ZM57.353,19.716C61.362,19.716 64.61,16.39 64.61,12.289C64.61,8.188 61.362,4.863 57.353,4.863C53.345,4.863 50.095,8.187 50.095,12.289C50.095,16.391 53.345,19.716 57.353,19.716ZM41.868,19.716C45.876,19.716 49.124,16.39 49.124,12.289C49.124,8.188 45.876,4.863 41.868,4.863C37.859,4.863 34.609,8.187 34.609,12.289C34.609,16.391 37.859,19.716 41.868,19.716Z" style="fill-rule:nonzero;"/>
</svg>
