<?xml version="1.0" encoding="UTF-8" standalone="no"?>
<!DOCTYPE svg PUBLIC "-//W3C//DTD SVG 1.1//EN" "http://www.w3.org/Graphics/SVG/1.1/DTD/svg11.dtd">
<svg width="100%" height="100%" viewBox="0 0 100 100" version="1.1" xmlns="http://www.w3.org/2000/svg" xmlns:xlink="http://www.w3.org/1999/xlink" xml:space="preserve" xmlns:serif="http://www.serif.com/" style="fill-rule:evenodd;clip-rule:evenodd;stroke-linejoin:round;stroke-miterlimit:2;">
    <g id="DZone_1_" transform="matrix(2.0663,0,0,2.0663,-89.4851,-35.0875)">
        <path d="M87.949,26.89C84.65,26.89 47.531,17.594 45.344,18.797C43.135,20.012 48.559,25.305 49.698,25.789C52.082,26.804 86.163,40.941 86.163,40.941C86.735,41.093 87.331,41.177 87.948,41.177C91.843,41.177 94.999,37.981 94.999,34.035C95,30.092 91.844,26.89 87.949,26.89ZM47.144,25.786C47.539,25.651 77.703,67.153 77.703,67.153L48.981,66.886L47.144,25.786ZM45.867,25.998L47.329,64.551L44.573,25.767C44.979,25.911 45.412,25.993 45.867,25.998ZM82.234,38.213L81.193,36.085C81.42,36.856 81.777,37.574 82.234,38.213ZM80.947,34.865C80.947,34.865 49.614,23.515 49.76,22.888L80.942,33.221C80.915,33.492 80.893,33.762 80.893,34.035C80.893,34.313 80.916,34.591 80.947,34.865ZM85.264,40.642L82.84,38.954C83.522,39.678 84.344,40.256 85.264,40.642Z" style="fill-rule:nonzero;"/>
    </g>
</svg>
