<?xml version="1.0" encoding="UTF-8" standalone="no"?>
<!DOCTYPE svg PUBLIC "-//W3C//DTD SVG 1.1//EN" "http://www.w3.org/Graphics/SVG/1.1/DTD/svg11.dtd">
<svg width="100%" height="100%" viewBox="0 0 100 100" version="1.1" xmlns="http://www.w3.org/2000/svg" xmlns:xlink="http://www.w3.org/1999/xlink" xml:space="preserve" xmlns:serif="http://www.serif.com/" style="fill-rule:evenodd;clip-rule:evenodd;stroke-linejoin:round;stroke-miterlimit:2;">
    <g id="eBay" transform="matrix(2.16299,0,0,2.16299,-43.7206,-62.8976)">
        <path d="M57.849,59.803C60.883,59.803 56.279,43.255 53.872,45.151C52.825,44.098 51.464,43.465 49.372,43.465C46.86,43.465 45.185,44.204 43.721,46.311L43.616,46.311L43.616,33.136L36.71,33.136L36.71,45.046C35.664,44.519 34.407,44.204 32.943,43.886C30.535,43.359 30.431,65.6 33.046,65.072C34.406,64.757 35.663,64.335 36.709,63.807L36.709,68.974L43.303,68.974L43.303,66.233L43.407,66.233C44.664,68.657 46.547,69.5 49.267,69.5C55.024,69.5 55.964,64.335 56.175,59.697C56.697,59.803 57.221,59.803 57.849,59.803ZM33.046,58.012L32.942,58.012L36.709,55.481L36.709,58.011L33.046,58.011L33.046,58.012ZM49.372,56.22C49.372,62.544 48.954,65.179 46.442,65.179C44.034,65.179 43.615,62.544 43.615,56.22C43.615,51.266 43.615,47.787 46.442,47.787C49.477,47.787 49.372,51.266 49.372,56.22Z" style="fill:rgb(255,0,0);"/>
    </g>
</svg>
