<?xml version="1.0" encoding="UTF-8" standalone="no"?>
<!DOCTYPE svg PUBLIC "-//W3C//DTD SVG 1.1//EN" "http://www.w3.org/Graphics/SVG/1.1/DTD/svg11.dtd">
<svg width="100%" height="100%" viewBox="0 0 100 100" version="1.1" xmlns="http://www.w3.org/2000/svg" xmlns:xlink="http://www.w3.org/1999/xlink" xml:space="preserve" xmlns:serif="http://www.serif.com/" style="fill-rule:evenodd;clip-rule:evenodd;stroke-linejoin:round;stroke-miterlimit:2;">
    <path id="Evernote" d="M76.146,48.568L8.167,25.379C8.167,25.379 6.225,17.284 16.938,7.192C26.981,-2.267 36.444,2.99 36.444,2.99L76.146,48.568ZM84.434,19.091C82.878,16.411 74.745,13.323 70.522,13.323L59.642,13.323C59.642,13.323 56.15,7 47.937,7C39.719,7 76.572,48.785 76.572,48.785L19.346,30.369C19.346,30.369 14.5,33.574 14.5,40.502C14.5,47.431 16.65,71.572 31.085,73.806C48.165,76.452 51.09,68.514 51.09,67.56C51.09,63.539 51.192,57.449 51.192,57.449C51.192,57.449 56.194,67.005 63.747,67.005C71.3,67.005 75.692,71.344 75.692,75.812L75.692,84.08C75.692,84.08 75.41,89.255 70.971,89.255L61.492,89.255C61.492,89.255 58.381,86.832 58.381,83.482C58.381,80.132 59.902,79.221 61.678,79.221C63.453,79.221 64.911,79.427 64.911,79.427L64.911,72.379C64.911,72.379 50.607,72.286 50.607,83.239C50.607,94.187 58.087,97 64.085,97L73.856,97C73.856,97 91.5,94.731 91.5,59.875C91.5,25.016 85.989,21.773 84.434,19.091Z" style="fill:rgb(255,0,0);"/>
</svg>
