<?xml version="1.0" encoding="UTF-8" standalone="no"?>
<!DOCTYPE svg PUBLIC "-//W3C//DTD SVG 1.1//EN" "http://www.w3.org/Graphics/SVG/1.1/DTD/svg11.dtd">
<svg width="100%" height="100%" viewBox="0 0 100 100" version="1.1" xmlns="http://www.w3.org/2000/svg" xmlns:xlink="http://www.w3.org/1999/xlink" xml:space="preserve" xmlns:serif="http://www.serif.com/" style="fill-rule:evenodd;clip-rule:evenodd;stroke-linejoin:round;stroke-miterlimit:2;">
    <path id="Facebook_Places" d="M79.535,27.4C79.215,26.199 78.564,24.92 78.083,23.8C72.324,9.96 59.741,5 49.581,5C35.98,5 21,14.12 19,32.919L19,36.76C19,36.92 19.055,38.36 19.134,39.08C20.255,48.039 27.324,57.56 32.604,66.519C38.284,76.118 44.178,85.56 50.018,94.999C53.618,88.84 57.206,82.6 60.724,76.599C61.684,74.839 62.797,73.079 63.757,71.399C64.397,70.28 65.619,69.16 66.178,68.119C71.857,57.72 81,47.24 81,36.92L81,32.68C81,31.561 79.614,27.641 79.535,27.4ZM49.83,46.68C45.832,46.68 41.456,44.681 39.296,39.16C38.974,38.281 39,36.52 39,36.359L39,33.879C39,26.841 44.976,23.64 50.175,23.64C56.575,23.64 61.526,28.761 61.526,35.161C61.525,41.561 56.23,46.68 49.83,46.68Z" style="fill:rgb(228,0,255);fill-rule:nonzero;"/>
</svg>
