<?xml version="1.0" encoding="UTF-8" standalone="no"?>
<!DOCTYPE svg PUBLIC "-//W3C//DTD SVG 1.1//EN" "http://www.w3.org/Graphics/SVG/1.1/DTD/svg11.dtd">
<svg width="100%" height="100%" viewBox="0 0 100 100" version="1.1" xmlns="http://www.w3.org/2000/svg" xmlns:xlink="http://www.w3.org/1999/xlink" xml:space="preserve" xmlns:serif="http://www.serif.com/" style="fill-rule:evenodd;clip-rule:evenodd;stroke-linejoin:round;stroke-miterlimit:2;">
    <path id="Facto.me" d="M69.762,62.478L76.928,10.478L95.002,10.478L102.016,62.562L69.762,62.478ZM73.656,70.17C68.062,70.17 63.529,74.648 63.529,80.17C63.529,85.693 68.062,90.17 73.656,90.17C79.25,90.17 83.783,85.693 83.783,80.17C83.783,74.647 79.25,70.17 73.656,70.17ZM26.215,64.939L57.043,64.939L60.16,52.316L28.686,52.316L33.985,25.247L67.95,25.247L71.067,10.17L19.961,10.17L-13.942,57.925L20.349,103.852L26.215,64.939Z" style="fill:rgb(0,220,255);fill-rule:nonzero;"/>
</svg>
