<?xml version="1.0" encoding="UTF-8" standalone="no"?>
<!DOCTYPE svg PUBLIC "-//W3C//DTD SVG 1.1//EN" "http://www.w3.org/Graphics/SVG/1.1/DTD/svg11.dtd">
<svg width="100%" height="100%" viewBox="0 0 100 100" version="1.1" xmlns="http://www.w3.org/2000/svg" xmlns:xlink="http://www.w3.org/1999/xlink" xml:space="preserve" xmlns:serif="http://www.serif.com/" style="fill-rule:evenodd;clip-rule:evenodd;stroke-linejoin:round;stroke-miterlimit:2;">
    <path id="Friendster" d="M41.849,20.577C48.056,25.869 50.418,35.148 48.056,42.904C45.395,49.902 33.53,49.922 31.049,42.701C28.504,35.467 29.603,26.27 35.043,20.593C36.939,18.682 40.018,18.348 41.849,20.577ZM89.574,24.109C86.112,23.222 80.97,23.003 79.406,27.04C74.231,37.461 96.208,75.175 48.416,84.483C4.807,81.9 24.321,41.792 18.022,33.577C2.467,26.92 4.941,46.141 5.453,49.352C5.477,49.498 5.502,49.644 5.527,49.79C5.527,49.796 5.53,49.811 5.53,49.811C6.268,54.452 6.514,59.231 8.751,63.456C17.536,81.581 40.235,90.256 59.154,84.964C79.971,79.017 94.4,57.728 95,36.371C94.883,31.932 94.183,26.102 89.574,24.109Z" style="fill:rgb(255,0,230);fill-rule:nonzero;"/>
</svg>
