<?xml version="1.0" encoding="UTF-8" standalone="no"?>
<!DOCTYPE svg PUBLIC "-//W3C//DTD SVG 1.1//EN" "http://www.w3.org/Graphics/SVG/1.1/DTD/svg11.dtd">
<svg width="100%" height="100%" viewBox="0 0 100 100" version="1.1" xmlns="http://www.w3.org/2000/svg" xmlns:xlink="http://www.w3.org/1999/xlink" xml:space="preserve" xmlns:serif="http://www.serif.com/" style="fill-rule:evenodd;clip-rule:evenodd;stroke-linejoin:round;stroke-miterlimit:2;">
    <path id="FriendFeed_1_" d="M95,22.133L81.615,22.133C79.022,22.133 76.136,25.562 76.136,30.228L76.136,38.136L91.944,38.136L91.944,53.948L76.136,53.948L60.328,53.947L5,53.947L5,38.136L20.808,38.136L20.808,30.228C20.808,17.144 30.357,6.5 42.096,6.5L55.48,6.5L55.48,22.133L42.096,22.133C39.502,22.133 36.616,25.562 36.616,30.228L36.616,38.136L60.328,38.136L60.328,30.228C60.328,17.144 69.876,6.5 81.615,6.5L95,6.5L95,22.133Z" style="fill-rule:nonzero;"/>
</svg>
