<?xml version="1.0" encoding="UTF-8" standalone="no"?>
<!DOCTYPE svg PUBLIC "-//W3C//DTD SVG 1.1//EN" "http://www.w3.org/Graphics/SVG/1.1/DTD/svg11.dtd">
<svg width="100%" height="100%" viewBox="0 0 100 100" version="1.1" xmlns="http://www.w3.org/2000/svg" xmlns:xlink="http://www.w3.org/1999/xlink" xml:space="preserve" xmlns:serif="http://www.serif.com/" style="fill-rule:evenodd;clip-rule:evenodd;stroke-linejoin:round;stroke-miterlimit:2;">
    <path id="Github__x28_alt_x29_" d="M90.868,36.694C101.718,69.892 101.391,97.19 100.26,100.421C102.347,102.203 78.432,97.938 58.492,87.645C34.238,75.126 8.55,51.073 5.197,51.871C10.742,49.857 14.767,56.733 22.098,56.496C21.666,53.9 20.693,47.016 18.342,47.116C13.973,47.31 8.473,47.853 5,48.505C17.76,44.668 17.873,38.101 24.693,38.087C22.607,31.547 22.555,29.991 27.104,26.122C25.815,22.873 26.215,17.559 27.9,15.029C32.979,15.257 36.059,17.472 39.25,19.586C43.207,18.461 47.368,17.901 52.79,18.199C55.07,18.325 57.481,18.789 59.159,19.188C66.129,20.845 65.964,15.605 72.552,16.382C79.118,17.157 86.532,23.428 90.868,36.694Z" style="fill-rule:nonzero;"/>
</svg>
