<?xml version="1.0" encoding="UTF-8" standalone="no"?>
<!DOCTYPE svg PUBLIC "-//W3C//DTD SVG 1.1//EN" "http://www.w3.org/Graphics/SVG/1.1/DTD/svg11.dtd">
<svg width="100%" height="100%" viewBox="0 0 100 100" version="1.1" xmlns="http://www.w3.org/2000/svg" xmlns:xlink="http://www.w3.org/1999/xlink" xml:space="preserve" xmlns:serif="http://www.serif.com/" style="fill-rule:evenodd;clip-rule:evenodd;stroke-linejoin:round;stroke-miterlimit:2;">
    <path id="Github" d="M74.5,5.272C66.453,10.302 58.157,6.059 52.177,5.272C25.772,1.793 17.378,32.598 36.616,44.949C31.663,47.514 31.987,60.573 37.294,62.433C24.794,63.863 22.476,81.48 29.177,88.662C37.33,97.398 62.411,96.82 69.765,88.662C74.9,82.963 75.613,71.217 71.115,65.799C67.016,60.854 46.445,60.107 46.765,52.347C46.988,46.924 54.426,47.779 58.942,45.622C67.435,41.561 72.425,29.41 69.088,20.066C70.982,19.71 72.603,19.078 74.5,18.722L74.5,5.272ZM42.03,33.519C32.131,11.953 64.79,13.5 54.884,33.519C51.633,35.927 45.239,36.166 42.03,33.519ZM60.294,75.885C61.171,85.556 41.588,85.985 39.323,79.251C37.417,73.577 39.79,71.969 45.41,70.507C51.776,68.849 59.706,69.416 60.294,75.885Z" style="fill:rgb(0,255,82);fill-rule:nonzero;"/>
</svg>
