<?xml version="1.0" encoding="UTF-8" standalone="no"?>
<!DOCTYPE svg PUBLIC "-//W3C//DTD SVG 1.1//EN" "http://www.w3.org/Graphics/SVG/1.1/DTD/svg11.dtd">
<svg width="100%" height="100%" viewBox="0 0 100 100" version="1.1" xmlns="http://www.w3.org/2000/svg" xmlns:xlink="http://www.w3.org/1999/xlink" xml:space="preserve" xmlns:serif="http://www.serif.com/" style="fill-rule:evenodd;clip-rule:evenodd;stroke-linejoin:round;stroke-miterlimit:2;">
    <path id="Goodreads" d="M49.289,68.463C59.029,68.382 65.955,63.51 70.064,53.849L70.279,53.849L70.279,68.584C70.279,69.682 74.531,68.786 74.531,67.487L74.531,6.717L70.277,6.717L70.277,20.113L70.062,20.113C68.425,15.202 65.718,11.488 61.935,8.97C58.119,6.494 53.902,5.255 49.287,5.255C41.25,5.418 35.144,8.523 30.965,14.572C26.674,20.579 24.531,27.989 24.531,36.798C24.531,45.851 26.566,53.34 30.636,59.267C34.748,65.317 40.963,68.382 49.289,68.463ZM33.912,17.861C37.254,12.38 42.379,9.539 49.289,9.336C56.377,9.54 61.627,12.3 65.047,17.618C68.463,22.937 70.172,29.33 70.172,36.8C70.172,44.27 68.463,50.622 65.047,55.859C61.627,61.422 56.377,64.262 49.289,64.384C42.6,64.261 37.508,61.5 34.02,56.102C30.493,50.865 28.731,44.431 28.731,36.799C28.73,29.654 30.457,23.341 33.912,17.861Z" style="fill-rule:nonzero;"/>
</svg>
