<?xml version="1.0" encoding="UTF-8" standalone="no"?>
<!DOCTYPE svg PUBLIC "-//W3C//DTD SVG 1.1//EN" "http://www.w3.org/Graphics/SVG/1.1/DTD/svg11.dtd">
<svg width="100%" height="100%" viewBox="0 0 100 100" version="1.1" xmlns="http://www.w3.org/2000/svg" xmlns:xlink="http://www.w3.org/1999/xlink" xml:space="preserve" xmlns:serif="http://www.serif.com/" style="fill-rule:evenodd;clip-rule:evenodd;stroke-linejoin:round;stroke-miterlimit:2;">
    <g id="Google_Talk" transform="matrix(-2.22045e-16,1,-1,-2.22045e-16,89.2436,0.398118)">
        <path d="M94.609,41.276C94.609,21.462 74.463,5.406 49.617,5.406C24.755,5.406 4.609,21.462 4.609,41.276C4.609,49.948 15.18,74.023 50.136,74.023C84.055,74.023 94.609,49.604 94.609,41.276ZM68.911,63.368C68.31,63.482 67.704,63.576 67.089,63.64C66.441,63.703 65.785,63.747 65.121,63.747C64.543,63.747 63.975,63.701 63.41,63.654C70.464,58.577 75.058,50.456 75.058,41.276C75.058,31.193 69.525,22.388 61.266,17.496C62.519,17.253 63.802,17.106 65.12,17.106C77.068,17.106 86.751,27.549 86.751,40.432C86.752,51.911 79.048,61.433 68.911,63.368Z" style="fill:rgb(255,0,0);"/>
    </g>
</svg>
