<?xml version="1.0" encoding="UTF-8" standalone="no"?>
<!DOCTYPE svg PUBLIC "-//W3C//DTD SVG 1.1//EN" "http://www.w3.org/Graphics/SVG/1.1/DTD/svg11.dtd">
<svg width="100%" height="100%" viewBox="0 0 100 100" version="1.1" xmlns="http://www.w3.org/2000/svg" xmlns:xlink="http://www.w3.org/1999/xlink" xml:space="preserve" xmlns:serif="http://www.serif.com/" style="fill-rule:evenodd;clip-rule:evenodd;stroke-linejoin:round;stroke-miterlimit:2;">
    <path id="Google" d="M109.5,5L55.145,5C48.762,5 40.723,5.942 33.987,11.49C28.897,15.864 26.421,21.882 26.421,27.318C26.421,36.529 33.515,45.864 46.046,45.864C47.228,45.864 48.523,45.744 49.833,45.629C49.241,47.042 48.644,48.223 48.644,50.234C48.644,53.897 50.537,56.137 52.191,58.264C46.877,58.616 6.352,60.361 -0.982,64.847C-7.957,68.989 -14.437,77.954 -13.03,88.088C-10.163,108.741 25.774,105.717 44.957,103.249C65.127,100.654 77.022,83.78 77.022,72.67C77.022,64.528 72.292,60.506 67.09,56.136L62.832,52.831C61.537,51.766 59.764,50.352 59.764,47.751C59.764,45.154 61.537,43.497 63.071,41.962C68.034,38.066 73.003,33.932 73.003,25.192C73.003,16.213 67.323,11.488 64.607,9.245L101.941,9.245L109.5,5ZM69.104,77.279C69.104,84.602 63.071,90.032 51.719,90.032C39.071,90.032 30.91,84.008 30.91,75.627C30.91,67.235 38.478,64.409 41.076,63.463C46.045,61.807 52.428,61.572 53.49,61.572C54.674,61.572 55.265,61.572 56.215,61.688C65.203,68.065 69.104,71.257 69.104,77.279ZM59.643,39.249C57.75,41.135 54.555,42.554 51.598,42.554C41.434,42.554 36.825,29.441 36.825,21.531C36.825,18.459 37.417,15.273 39.423,12.791C41.316,10.429 44.624,8.892 47.7,8.892C57.511,8.892 62.6,22.121 62.6,30.622C62.6,32.752 62.359,36.528 59.643,39.249Z" style="fill-rule:nonzero;"/>
</svg>
