<?xml version="1.0" encoding="UTF-8" standalone="no"?>
<!DOCTYPE svg PUBLIC "-//W3C//DTD SVG 1.1//EN" "http://www.w3.org/Graphics/SVG/1.1/DTD/svg11.dtd">
<svg width="100%" height="100%" viewBox="0 0 100 100" version="1.1" xmlns="http://www.w3.org/2000/svg" xmlns:xlink="http://www.w3.org/1999/xlink" xml:space="preserve" xmlns:serif="http://www.serif.com/" style="fill-rule:evenodd;clip-rule:evenodd;stroke-linejoin:round;stroke-miterlimit:2;">
    <path id="Gowalla" d="M59.285,45.533C58.784,51.099 60.285,58.658 58.529,62.956C32.788,65.986 36.269,10.805 58.529,15.226C54.709,32.991 75.463,32.113 75.946,19.77C76.301,10.512 65.851,6.213 60.042,5.376C42.658,2.87 10.854,12.858 8.397,35.683C5.957,58.349 24.877,65.495 41.868,73.565C33.193,98.403 75.674,99.802 86.699,87.204C94.962,77.766 90.002,60.665 92,45.533L59.285,45.533ZM52.468,82.66C45.422,78.56 52.094,69.612 57.77,69.021C58.65,68.898 59.119,69.191 59.286,69.781C59.947,77.008 57.94,81.568 52.468,82.66Z" style="fill-rule:nonzero;"/>
</svg>
