<?xml version="1.0" encoding="UTF-8" standalone="no"?>
<!DOCTYPE svg PUBLIC "-//W3C//DTD SVG 1.1//EN" "http://www.w3.org/Graphics/SVG/1.1/DTD/svg11.dtd">
<svg width="100%" height="100%" viewBox="0 0 100 100" version="1.1" xmlns="http://www.w3.org/2000/svg" xmlns:xlink="http://www.w3.org/1999/xlink" xml:space="preserve" xmlns:serif="http://www.serif.com/" style="fill-rule:evenodd;clip-rule:evenodd;stroke-linejoin:round;stroke-miterlimit:2;">
    <path id="Hyves" d="M73.026,5.002L79.214,5.002C81.357,4.866 84.658,11.062 83.754,13.708C83.192,15.45 78.579,16.239 77.566,17.54C75.813,19.772 76.472,26.69 76.472,31.341L76.472,68.562C76.472,70.646 76.201,74.807 76.843,75.456C77.504,76.115 79.882,75.691 80.831,75.998C83.02,76.702 85.67,80.934 83.942,83.803C83.463,84.579 81.265,85.084 79.745,85.798C76.147,87.512 30.255,94.443 24.783,94.885C22.676,95.038 21.896,95.092 20.415,94.723C18.009,94.046 14.889,90.789 15.142,88.353C15.35,86.375 12.662,22.193 11.496,19.351L11.496,17.726C13.449,13.909 18.379,13.107 23.688,12.085C31.193,10.65 68.116,5.999 73.026,5.002Z"/>
</svg>
