<?xml version="1.0" encoding="UTF-8" standalone="no"?>
<!DOCTYPE svg PUBLIC "-//W3C//DTD SVG 1.1//EN" "http://www.w3.org/Graphics/SVG/1.1/DTD/svg11.dtd">
<svg width="100%" height="100%" viewBox="0 0 100 100" version="1.1" xmlns="http://www.w3.org/2000/svg" xmlns:xlink="http://www.w3.org/1999/xlink" xml:space="preserve" xmlns:serif="http://www.serif.com/" style="fill-rule:evenodd;clip-rule:evenodd;stroke-linejoin:round;stroke-miterlimit:2;">
    <path id="Kik" d="M1.218,88.926L12.502,14.218C12.502,9.125 16.131,5 20.615,5C25.095,5 28.726,9.125 28.726,14.218L28.726,54.488L49.005,32.655C51.353,30.107 53.274,28.53 56.154,28.53C60.53,28.53 63.305,32.533 63.305,36.779C63.305,39.933 61.812,42.36 59.571,44.784L46.764,57.278L62.028,80.687C63.416,82.871 64.056,84.569 64.056,86.63C64.056,91.603 60.532,94.999 56.476,94.999C53.275,94.999 51.354,93.786 49.432,90.754L35.236,68.559L28.726,75.231L28.726,85.782C28.726,90.878 25.095,95.001 20.615,95.001C16.131,95 1.218,94.022 1.218,88.926Z" style="fill-rule:nonzero;"/>
</svg>
