<?xml version="1.0" encoding="UTF-8" standalone="no"?>
<!DOCTYPE svg PUBLIC "-//W3C//DTD SVG 1.1//EN" "http://www.w3.org/Graphics/SVG/1.1/DTD/svg11.dtd">
<svg width="100%" height="100%" viewBox="0 0 100 100" version="1.1" xmlns="http://www.w3.org/2000/svg" xmlns:xlink="http://www.w3.org/1999/xlink" xml:space="preserve" xmlns:serif="http://www.serif.com/" style="fill-rule:evenodd;clip-rule:evenodd;stroke-linejoin:round;stroke-miterlimit:2;">
    <path id="last.fm" d="M77.033,76.691C67.659,76.653 62.664,72.037 59.192,63.904L58.203,61.684L49.641,42.04C46.806,35.086 39.76,30.388 31.814,30.388C21.062,30.388 12.339,39.171 12.339,50.003C12.339,60.836 21.062,69.619 31.814,69.619C39.314,69.619 40.171,77 31.813,77C17.005,77 5,64.921 5,50.003C5,35.094 17.005,23 31.813,23C42.991,23 52.014,29.009 56.598,39.658C56.95,40.484 61.447,51.081 65.373,60.099C67.805,65.682 69.876,69.383 76.601,69.612C83.207,69.84 87.741,65.792 87.741,60.674C87.741,55.674 84.284,54.472 78.447,52.518C67.959,49.038 74.44,43.366 81.362,45.652C90.672,48.706 95,52.193 95,60.902C95,70.047 87.207,76.706 77.033,76.691Z" style="fill-rule:nonzero;"/>
</svg>
