<?xml version="1.0" encoding="UTF-8" standalone="no"?>
<!DOCTYPE svg PUBLIC "-//W3C//DTD SVG 1.1//EN" "http://www.w3.org/Graphics/SVG/1.1/DTD/svg11.dtd">
<svg width="100%" height="100%" viewBox="0 0 100 100" version="1.1" xmlns="http://www.w3.org/2000/svg" xmlns:xlink="http://www.w3.org/1999/xlink" xml:space="preserve" xmlns:serif="http://www.serif.com/" style="fill-rule:evenodd;clip-rule:evenodd;stroke-linejoin:round;stroke-miterlimit:2;">
    <path id="LinkedIn" d="M95,59.727L95,93L75.71,93L75.71,61.955C75.71,54.156 72.92,48.834 65.937,48.834C60.607,48.834 57.435,52.421 56.04,55.89C55.531,57.131 55.4,58.857 55.4,60.594L55.4,93L36.104,93C36.104,93 36.364,40.42 36.104,34.972L55.399,34.972L55.399,43.197C55.36,43.259 55.309,43.325 55.272,43.385L55.399,43.385L55.399,43.197C57.962,39.249 62.54,33.609 72.787,33.609C85.483,33.609 95,41.903 95,59.727ZM6.146,93L25.435,93L25.435,34.972L6.146,34.972L6.146,93Z" style="fill-rule:nonzero;"/>
</svg>
