<?xml version="1.0" encoding="UTF-8" standalone="no"?>
<!DOCTYPE svg PUBLIC "-//W3C//DTD SVG 1.1//EN" "http://www.w3.org/Graphics/SVG/1.1/DTD/svg11.dtd">
<svg width="100%" height="100%" viewBox="0 0 100 100" version="1.1" xmlns="http://www.w3.org/2000/svg" xmlns:xlink="http://www.w3.org/1999/xlink" xml:space="preserve" xmlns:serif="http://www.serif.com/" style="fill-rule:evenodd;clip-rule:evenodd;stroke-linejoin:round;stroke-miterlimit:2;">
    <path id="LinkedIn__x28_alt_x29_" d="M94.523,89.157L4.524,89.157C4.524,92.719 7.502,95.608 11.174,95.608L87.877,95.608C91.55,95.608 94.523,92.718 94.523,89.157ZM31.809,80.944L18.211,80.944L18.211,40.31L31.809,40.31L31.809,80.944ZM25.011,34.759L24.92,34.759C20.36,34.759 29.749,34.759 25.011,34.759ZM80.827,80.944L67.233,80.944L67.233,59.204C67.233,53.74 65.263,50.013 60.347,50.013C56.586,50.013 54.354,52.528 53.374,54.955C53.01,55.823 52.921,57.035 52.921,58.247L52.921,80.943L39.329,80.943C39.329,80.943 39.507,44.12 39.329,40.309L52.922,40.309L52.922,46.07C54.727,43.302 57.951,39.353 65.171,39.353C74.118,39.353 80.827,45.157 80.827,57.644L80.827,80.944ZM52.834,46.199C52.858,46.161 52.89,46.115 52.922,46.071L52.922,46.199L52.834,46.199Z" style="fill-rule:nonzero;"/>
</svg>
