<?xml version="1.0" encoding="UTF-8" standalone="no"?>
<!DOCTYPE svg PUBLIC "-//W3C//DTD SVG 1.1//EN" "http://www.w3.org/Graphics/SVG/1.1/DTD/svg11.dtd">
<svg width="100%" height="100%" viewBox="0 0 100 100" version="1.1" xmlns="http://www.w3.org/2000/svg" xmlns:xlink="http://www.w3.org/1999/xlink" xml:space="preserve" xmlns:serif="http://www.serif.com/" style="fill-rule:evenodd;clip-rule:evenodd;stroke-linejoin:round;stroke-miterlimit:2;">
    <path id="LiveJournal" d="M83.841,93.029C83.737,93.029 83.634,93.009 83.536,92.967L53.119,80.264C52.873,80.161 52.697,79.942 52.646,79.682C52.597,79.42 52.681,79.153 52.873,78.967C56.369,75.57 29.96,31.989 35.122,27.911C41.341,22.997 72.616,62.908 78.313,59.003C78.536,58.848 78.823,58.82 79.074,58.929C79.325,59.038 79.499,59.265 79.543,59.533L84.621,92.117C84.665,92.4 84.554,92.683 84.329,92.862C84.188,92.971 84.016,93.029 83.841,93.029ZM80.827,90.98L83.841,92.239L80.827,90.98ZM37.934,8.563C27.621,8.563 11.601,23.146 17.383,33.397L51.469,78.717L83.841,92.238L78.319,56.816L44.232,11.688C42.8,9.502 40.551,8.563 37.934,8.563" style="fill-rule:nonzero;"/>
</svg>
