<?xml version="1.0" encoding="UTF-8" standalone="no"?>
<!DOCTYPE svg PUBLIC "-//W3C//DTD SVG 1.1//EN" "http://www.w3.org/Graphics/SVG/1.1/DTD/svg11.dtd">
<svg width="100%" height="100%" viewBox="0 0 100 100" version="1.1" xmlns="http://www.w3.org/2000/svg" xmlns:xlink="http://www.w3.org/1999/xlink" xml:space="preserve" xmlns:serif="http://www.serif.com/" style="fill-rule:evenodd;clip-rule:evenodd;stroke-linejoin:round;stroke-miterlimit:2;">
    <g id="Meetup" transform="matrix(1,0,0,1,-2,0)">
        <path d="M83.713,43.804L83.562,43.945C80.991,46.369 80.059,50.484 79.387,54.149C81.532,53.569 83.355,51.587 84.142,49.407C84.622,48.076 84.953,46.054 83.814,43.985L83.713,43.804ZM95,73.785C95,75.561 93.561,77 91.785,77L71.215,77C69.439,77 68,75.561 68,73.785L68,26.215C68,24.439 69.439,23 71.215,23L91.785,23C93.561,23 95,24.439 95,26.215L95,73.785ZM87.31,42.754C85.708,41.816 84.313,41.364 83.04,41.364C81.456,41.364 80.083,42.076 78.841,43.545C76.503,46.305 76.016,52.052 75.68,54.946C75.539,55.006 75.385,55.053 75.229,55.097C74.823,55.218 74.441,55.332 74.295,55.521C75.524,56.945 75.765,59.36 76,61.691C76.183,63.491 76.367,65.352 76.895,66.616C77.187,66.679 77.598,66.712 78.15,66.712C78.409,66.712 78.681,66.704 78.952,66.704C79.409,66.704 79.859,66.724 80.216,66.833C79.365,64.687 79.033,61.779 79.297,57.53C82.765,56.71 85.848,54.249 87.339,51.107C88.239,49.209 88.955,46.207 87.31,42.754Z"/>
    </g>
    <g id="Meetup1" serif:id="Meetup" transform="matrix(1,0,0,1,-32,0)">
        <path d="M83.713,43.804L83.562,43.945C80.991,46.369 80.059,50.484 79.387,54.149C81.532,53.569 83.355,51.587 84.142,49.407C84.622,48.076 84.953,46.054 83.814,43.985L83.713,43.804ZM95,73.785C95,75.561 93.561,77 91.785,77L71.215,77C69.439,77 68,75.561 68,73.785L68,26.215C68,24.439 69.439,23 71.215,23L91.785,23C93.561,23 95,24.439 95,26.215L95,73.785ZM87.31,42.754C85.708,41.816 84.313,41.364 83.04,41.364C81.456,41.364 80.083,42.076 78.841,43.545C76.503,46.305 76.016,52.052 75.68,54.946C75.539,55.006 75.385,55.053 75.229,55.097C74.823,55.218 74.441,55.332 74.295,55.521C75.524,56.945 75.765,59.36 76,61.691C76.183,63.491 76.367,65.352 76.895,66.616C77.187,66.679 77.598,66.712 78.15,66.712C78.409,66.712 78.681,66.704 78.952,66.704C79.409,66.704 79.859,66.724 80.216,66.833C79.365,64.687 79.033,61.779 79.297,57.53C82.765,56.71 85.848,54.249 87.339,51.107C88.239,49.209 88.955,46.207 87.31,42.754Z"/>
    </g>
    <g id="Meetup2" serif:id="Meetup" transform="matrix(1,0,0,1,-62,0)">
        <path d="M83.713,43.804L83.562,43.945C80.991,46.369 80.059,50.484 79.387,54.149C81.532,53.569 83.355,51.587 84.142,49.407C84.622,48.076 84.953,46.054 83.814,43.985L83.713,43.804ZM95,73.785C95,75.561 93.561,77 91.785,77L71.215,77C69.439,77 68,75.561 68,73.785L68,26.215C68,24.439 69.439,23 71.215,23L91.785,23C93.561,23 95,24.439 95,26.215L95,73.785ZM87.31,42.754C85.708,41.816 84.313,41.364 83.04,41.364C81.456,41.364 80.083,42.076 78.841,43.545C76.503,46.305 76.016,52.052 75.68,54.946C75.539,55.006 75.385,55.053 75.229,55.097C74.823,55.218 74.441,55.332 74.295,55.521C75.524,56.945 75.765,59.36 76,61.691C76.183,63.491 76.367,65.352 76.895,66.616C77.187,66.679 77.598,66.712 78.15,66.712C78.409,66.712 78.681,66.704 78.952,66.704C79.409,66.704 79.859,66.724 80.216,66.833C79.365,64.687 79.033,61.779 79.297,57.53C82.765,56.71 85.848,54.249 87.339,51.107C88.239,49.209 88.955,46.207 87.31,42.754Z"/>
    </g>
</svg>
