<?xml version="1.0" encoding="UTF-8" standalone="no"?>
<!DOCTYPE svg PUBLIC "-//W3C//DTD SVG 1.1//EN" "http://www.w3.org/Graphics/SVG/1.1/DTD/svg11.dtd">
<svg width="100%" height="100%" viewBox="0 0 100 100" version="1.1" xmlns="http://www.w3.org/2000/svg" xmlns:xlink="http://www.w3.org/1999/xlink" xml:space="preserve" xmlns:serif="http://www.serif.com/" style="fill-rule:evenodd;clip-rule:evenodd;stroke-linejoin:round;stroke-miterlimit:2;">
    <path id="Metacafe" d="M86.838,95L73.636,85.441L60.438,95L65.477,79.529L52.275,69.975L68.596,69.975L73.636,54.503L78.68,69.975L95,69.975L81.798,79.529L86.838,95ZM61.69,80.758C58.908,78.747 42.365,66.766 42.365,66.766C42.365,66.766 65.163,69.975 68.596,69.975C69.659,66.711 73.636,44.12 73.636,44.12C73.636,44.12 79.953,63.502 81.014,66.766L93.773,66.766L93.84,2.914L1.867,2.917L4.283,93.449L57.698,93.011C59.385,87.842 61.166,82.353 61.69,80.758Z"/>
</svg>
