<?xml version="1.0" encoding="UTF-8" standalone="no"?>
<!DOCTYPE svg PUBLIC "-//W3C//DTD SVG 1.1//EN" "http://www.w3.org/Graphics/SVG/1.1/DTD/svg11.dtd">
<svg width="100%" height="100%" viewBox="0 0 100 100" version="1.1" xmlns="http://www.w3.org/2000/svg" xmlns:xlink="http://www.w3.org/1999/xlink" xml:space="preserve" xmlns:serif="http://www.serif.com/" style="fill-rule:evenodd;clip-rule:evenodd;stroke-linejoin:round;stroke-miterlimit:2;">
    <path id="Ning" d="M82.406,65.79C82.406,62.343 85.227,59.547 88.705,59.547C92.185,59.547 95.002,62.343 95.002,65.79C95.002,69.237 82.406,69.237 82.406,65.79ZM82.406,33.686C82.406,37.132 95.002,37.132 95.002,33.686C95.002,30.239 92.186,27.443 88.705,27.443C85.227,27.443 82.406,30.239 82.406,33.686ZM64.83,41.229C64.83,44.677 77.426,44.677 77.426,41.229C77.426,37.782 74.606,34.986 71.128,34.986C67.647,34.985 64.83,37.781 64.83,41.229ZM33.603,82.514C30.125,82.514 27.305,85.31 27.305,88.757C27.305,92.204 39.901,92.204 39.901,88.757C39.901,85.31 37.08,82.514 33.603,82.514ZM52.232,28.742C52.232,32.189 64.83,32.189 64.83,28.742C64.83,25.295 62.01,22.5 58.529,22.5C55.052,22.5 52.232,25.295 52.232,28.742ZM71.128,52.153C67.648,52.153 64.83,54.949 64.83,58.396C64.83,61.843 77.426,61.843 77.426,58.396C77.426,54.949 74.605,52.153 71.128,52.153ZM41.476,64.639C37.998,64.639 35.178,67.435 35.178,70.882C35.178,74.329 47.774,74.329 47.774,70.882C47.774,67.435 44.953,64.639 41.476,64.639ZM66.327,82.514C62.849,82.514 60.029,85.31 60.029,88.757C60.029,92.204 72.625,92.204 72.625,88.757C72.625,85.31 69.805,82.514 66.327,82.514ZM60.029,11.242C60.029,14.689 72.625,14.689 72.625,11.242C72.625,7.795 69.805,4.999 66.327,4.999C62.849,4.999 60.029,7.795 60.029,11.242ZM22.584,58.397C22.584,61.844 35.178,61.844 35.178,58.397C35.178,54.95 32.358,52.154 28.88,52.154C25.402,52.154 22.584,54.95 22.584,58.397ZM5.002,33.686C5.002,37.132 17.598,37.132 17.598,33.686C17.598,30.239 14.778,27.443 11.3,27.443C7.822,27.443 5.002,30.239 5.002,33.686ZM5.002,65.79C5.002,69.237 17.598,69.237 17.598,65.79C17.598,62.343 14.778,59.547 11.3,59.547C7.822,59.547 5.002,62.343 5.002,65.79ZM22.584,41.229C22.584,44.677 35.178,44.677 35.178,41.229C35.178,37.782 32.358,34.986 28.88,34.986C25.402,34.986 22.584,37.782 22.584,41.229ZM52.232,70.882C52.232,74.329 64.83,74.329 64.83,70.882C64.83,67.435 62.01,64.639 58.529,64.639C55.052,64.639 52.232,67.435 52.232,70.882ZM35.178,28.742C35.178,32.189 47.774,32.189 47.774,28.742C47.774,25.295 44.954,22.5 41.476,22.5C37.998,22.5 35.178,25.295 35.178,28.742ZM27.305,11.243C27.305,14.689 39.901,14.689 39.901,11.242C39.9,7.795 37.08,5 33.603,5C30.126,5 27.305,7.796 27.305,11.243Z" style="fill-rule:nonzero;"/>
</svg>
