<?xml version="1.0" encoding="UTF-8" standalone="no"?>
<!DOCTYPE svg PUBLIC "-//W3C//DTD SVG 1.1//EN" "http://www.w3.org/Graphics/SVG/1.1/DTD/svg11.dtd">
<svg width="100%" height="100%" viewBox="0 0 100 100" version="1.1" xmlns="http://www.w3.org/2000/svg" xmlns:xlink="http://www.w3.org/1999/xlink" xml:space="preserve" xmlns:serif="http://www.serif.com/" style="fill-rule:evenodd;clip-rule:evenodd;stroke-linejoin:round;stroke-miterlimit:2;">
    <path id="Mister_Wong" d="M28.77,19.766C23.593,19.674 16.421,19.786 9.867,19.766L9.867,22.958C15.796,23.479 22.693,23.037 29.002,23.188C30.746,36.773 36.11,46.751 48.588,49.606L48.588,71.698C30.097,73.175 35.782,79.243 48.589,77.845L48.589,95.163C49.476,95.638 51.207,95.274 52.46,95.386C52.514,93.226 52.489,90.985 52.461,88.741C52.413,84.833 52.355,80.914 52.69,77.39C67.558,78.161 70.562,73.491 52.46,71.474L52.46,49.376C64.2,46.238 68.872,36.036 70.91,23.189C76.904,23.189 84.344,19.665 82.236,19.678C78.54,19.703 75.008,19.785 70.678,19.542C70.692,13.91 64.793,14.411 64.078,19.766C59.5,19.478 53.197,19.803 47.014,19.808C43.43,19.81 39.886,19.705 36.743,19.311C36.756,13.858 29.133,15.236 28.77,19.766ZM47.901,43.685C40.831,41.766 55.189,23.189 64.078,23.189C63.273,31.518 60.272,41.812 52.916,43.685C51.162,44.127 49.49,44.114 47.901,43.685Z"/>
</svg>
