<?xml version="1.0" encoding="UTF-8" standalone="no"?>
<!DOCTYPE svg PUBLIC "-//W3C//DTD SVG 1.1//EN" "http://www.w3.org/Graphics/SVG/1.1/DTD/svg11.dtd">
<svg width="100%" height="100%" viewBox="0 0 100 100" version="1.1" xmlns="http://www.w3.org/2000/svg" xmlns:xlink="http://www.w3.org/1999/xlink" xml:space="preserve" xmlns:serif="http://www.serif.com/" style="fill-rule:evenodd;clip-rule:evenodd;stroke-linejoin:round;stroke-miterlimit:2;">
    <path id="Mixx_1_" d="M84.033,61.208C84.033,80.307 68.586,95.788 49.533,95.788C30.48,95.788 15.033,80.307 15.033,61.208C15.033,47.084 23.494,34.957 35.603,29.589L29.213,11.016C28.474,8.867 29.656,6.594 31.837,5.971L31.926,5.947C32.295,5.837 32.667,5.789 33.03,5.789C34.81,5.789 36.407,6.993 36.842,8.832L41.289,27.667C43.935,27.015 46.686,26.632 49.533,26.632C68.586,26.631 84.033,42.111 84.033,61.208ZM77.384,61.194C77.384,45.787 64.915,33.291 49.532,33.291C47.212,33.291 44.971,33.605 42.817,34.142L48.01,56.137C48.532,58.352 48.391,60.366 47.699,60.619C47.646,60.637 47.594,60.647 47.54,60.647C46.836,60.647 45.776,59.162 45.09,57.17L37.78,35.921C28.278,40.365 21.677,49.998 21.677,61.193C21.677,76.602 34.148,89.089 49.531,89.089C64.916,89.091 77.384,76.604 77.384,61.194Z" style="fill-rule:nonzero;"/>
</svg>
