<?xml version="1.0" encoding="UTF-8" standalone="no"?>
<!DOCTYPE svg PUBLIC "-//W3C//DTD SVG 1.1//EN" "http://www.w3.org/Graphics/SVG/1.1/DTD/svg11.dtd">
<svg width="100%" height="100%" viewBox="0 0 100 100" version="1.1" xmlns="http://www.w3.org/2000/svg" xmlns:xlink="http://www.w3.org/1999/xlink" xml:space="preserve" xmlns:serif="http://www.serif.com/" style="fill-rule:evenodd;clip-rule:evenodd;stroke-linejoin:round;stroke-miterlimit:2;">
    <path id="MobileMe" d="M95,62.699C95,72.53 87.088,80.5 77.332,80.5L22.665,80.5C12.909,80.5 5,72.53 5,62.699C5,53.82 11.45,46.465 19.889,45.119C19.782,44.496 19.723,43.855 19.723,43.195C19.723,36.966 24.735,31.917 30.919,31.917C33.677,31.917 36.204,32.922 38.154,34.594C41.63,26.702 46.086,19.5 58.587,19.5C73.748,19.5 80.934,31.281 80.934,43.713C80.934,44.233 80.912,44.748 80.877,45.258C88.936,46.912 95,54.092 95,62.699Z" style="fill:white;"/>
</svg>
