<?xml version="1.0" encoding="UTF-8" standalone="no"?>
<!DOCTYPE svg PUBLIC "-//W3C//DTD SVG 1.1//EN" "http://www.w3.org/Graphics/SVG/1.1/DTD/svg11.dtd">
<svg width="100%" height="100%" viewBox="0 0 100 100" version="1.1" xmlns="http://www.w3.org/2000/svg" xmlns:xlink="http://www.w3.org/1999/xlink" xml:space="preserve" xmlns:serif="http://www.serif.com/" style="fill-rule:evenodd;clip-rule:evenodd;stroke-linejoin:round;stroke-miterlimit:2;">
    <path id="MSN_Messenger" d="M4.007,58.322C5.498,44.427 39.315,27.381 39.315,34.223C39.315,38.083 39.374,40.885 41.451,42.512C35.956,45.259 23.858,53.177 22.023,70.267C22.02,70.412 22.02,70.55 22.02,70.69C11.391,70.023 10.306,67.142 10.306,67.142L10.306,67.14C9.63,66.484 9.105,65.68 8.785,64.674C7.236,64.317 6.263,63.385 6.263,63.385C6.263,63.385 3.885,62.5 4.007,58.322ZM48.324,42.951C45.816,43.91 28.71,51.191 26.497,71.78C26.316,77.97 29.837,79.279 29.837,79.279L29.837,79.281C29.837,79.281 31.283,80.66 33.58,81.189C34.053,82.679 34.828,83.873 35.832,84.845L35.832,84.848C35.832,84.848 37.518,89.347 54.459,90.178C54.71,90.222 54.957,90.262 55.202,90.308L59.415,90.308C59.943,90.308 60.482,90.312 61.036,90.308L65.878,90.308C66.295,90.232 66.718,90.162 67.144,90.093C84.552,88.935 86.385,83.496 86.385,83.496L86.382,83.491C86.844,82.811 87.228,82.052 87.503,81.188C95.426,79.622 94.8,70.193 92.428,62.95C89.132,52.893 80.745,45.964 71.954,42.858C76.14,39.493 78.811,34.383 78.811,28.664C78.811,18.527 70.424,19.31 60.079,19.31C49.734,19.31 41.347,18.528 41.347,28.664C41.347,34.439 44.069,39.586 48.324,42.951Z" style="fill:rgb(135,135,135);fill-rule:nonzero;"/>
</svg>
