<?xml version="1.0" encoding="UTF-8" standalone="no"?>
<!DOCTYPE svg PUBLIC "-//W3C//DTD SVG 1.1//EN" "http://www.w3.org/Graphics/SVG/1.1/DTD/svg11.dtd">
<svg width="100%" height="100%" viewBox="0 0 100 100" version="1.1" xmlns="http://www.w3.org/2000/svg" xmlns:xlink="http://www.w3.org/1999/xlink" xml:space="preserve" xmlns:serif="http://www.serif.com/" style="fill-rule:evenodd;clip-rule:evenodd;stroke-linejoin:round;stroke-miterlimit:2;">
    <path id="Path" d="M27.336,9.274C10.941,18.393 17.111,42.642 20.462,39.782C16.921,28.495 26.092,24.03 40.943,20.444C54.768,17.111 73.506,22.864 77.699,37.089C79.434,42.981 78.298,49.493 73.494,53.759C70.981,55.991 67.793,57.468 64.421,58.069C62.452,58.418 60.431,58.473 58.441,58.277C57.332,58.166 56.229,57.978 55.144,57.723C53.304,57.289 51.667,57.354 51.667,55.37L51.667,39.816C51.667,37.226 34.794,41.305 34.794,44.211C34.794,52.898 35.448,61.687 35.089,70.358C34.985,72.942 35.396,96.06 40.302,94.396C50.579,90.91 53.903,79.472 52.601,70.074C68.466,74.814 85.591,66.884 92.376,52.557C97.207,42.356 95.167,29.684 87.894,21.01C74.271,4.759 45.457,-0.805 27.336,9.274Z" style="fill-rule:nonzero;"/>
</svg>
