<?xml version="1.0" encoding="UTF-8" standalone="no"?>
<!DOCTYPE svg PUBLIC "-//W3C//DTD SVG 1.1//EN" "http://www.w3.org/Graphics/SVG/1.1/DTD/svg11.dtd">
<svg width="100%" height="100%" viewBox="0 0 100 100" version="1.1" xmlns="http://www.w3.org/2000/svg" xmlns:xlink="http://www.w3.org/1999/xlink" xml:space="preserve" xmlns:serif="http://www.serif.com/" style="fill-rule:evenodd;clip-rule:evenodd;stroke-linejoin:round;stroke-miterlimit:2;">
    <path id="PayPal" d="M63.056,5L23.648,5L6.188,85.146L29.312,85.146L34.976,58.589L51.496,58.589C67.299,58.589 80.515,48.845 84.059,32.277C88.063,13.521 74.611,5 63.056,5ZM45.815,43.242L38.279,43.242L43.232,21.318L54.558,21.318C58.443,21.318 62.711,21.548 62.387,27.587C61.569,42.788 45.815,43.242 45.815,43.242ZM90.354,37.754C91.68,31.543 91.065,26.479 89.268,22.448C93.016,26.918 94.956,33.403 93.093,42.135C89.55,58.701 76.331,68.445 60.531,68.445L44.011,68.445L38.348,95L15.222,95L16.182,90.619L35.61,90.619L41.273,64.064L57.794,64.064C73.596,64.064 86.812,54.321 90.354,37.754Z" style="fill-rule:nonzero;"/>
</svg>
