<?xml version="1.0" encoding="UTF-8" standalone="no"?>
<!DOCTYPE svg PUBLIC "-//W3C//DTD SVG 1.1//EN" "http://www.w3.org/Graphics/SVG/1.1/DTD/svg11.dtd">
<svg width="100%" height="100%" viewBox="0 0 100 100" version="1.1" xmlns="http://www.w3.org/2000/svg" xmlns:xlink="http://www.w3.org/1999/xlink" xml:space="preserve" xmlns:serif="http://www.serif.com/" style="fill-rule:evenodd;clip-rule:evenodd;stroke-linejoin:round;stroke-miterlimit:2;">
    <path id="Picassa" d="M28.596,59.541C29.562,59.541 88.794,69.689 90.423,69.689C83.527,83.946 69.649,93.549 54.103,95L45.854,95C40.923,94.54 36.139,93.264 31.565,91.209C31.564,90.563 28.596,60.477 28.596,59.541ZM73.3,11.627C65.55,7.153 56.44,5 49.998,5C44.636,5 39.358,6.035 34.285,7.941C35.474,9.022 67.02,37.711 68.553,39.109C68.553,37.043 73.3,12.262 73.3,11.627ZM34.285,7.941C14.327,17.124 5,33.092 5,50.094C5,53.966 5.583,57.903 6.637,61.806C7.859,60.694 45.745,26.204 46.526,25.49C45.764,24.798 34.795,8.406 34.285,7.941ZM26.837,88.606L26.837,49.834C25.335,51.205 8.761,66.298 8.244,66.768C11.852,75.83 18.435,83.52 26.837,88.606ZM73.3,11.627C73.3,13.42 71.018,51.343 71.018,52.302C71.942,52.302 91.734,64.938 92.45,64.938C94.124,60.138 95,55.143 95,50.094C95,34.423 86.685,19.793 73.3,11.627Z" style="fill-rule:nonzero;"/>
</svg>
