<?xml version="1.0" encoding="UTF-8" standalone="no"?>
<!DOCTYPE svg PUBLIC "-//W3C//DTD SVG 1.1//EN" "http://www.w3.org/Graphics/SVG/1.1/DTD/svg11.dtd">
<svg width="100%" height="100%" viewBox="0 0 100 100" version="1.1" xmlns="http://www.w3.org/2000/svg" xmlns:xlink="http://www.w3.org/1999/xlink" xml:space="preserve" xmlns:serif="http://www.serif.com/" style="fill-rule:evenodd;clip-rule:evenodd;stroke-linejoin:round;stroke-miterlimit:2;">
    <path id="Ping" d="M5,29.325C7.434,28.897 10.732,28.576 15.162,28.576C20.027,28.576 23.541,29.592 25.865,31.514C28.027,33.278 29.433,36.108 29.433,39.471C29.433,42.889 28.351,45.666 26.351,47.589C23.65,50.205 19.54,51.486 14.837,51.486C13.595,51.486 12.513,51.433 11.595,51.22L11.595,64.837L5,64.837L5,29.325ZM11.596,46.039C12.461,46.308 13.487,46.359 14.838,46.359C19.811,46.359 22.84,43.903 22.84,39.738C22.84,35.733 20.027,33.65 15.434,33.65C13.596,33.65 12.299,33.81 11.596,33.97L11.596,46.039ZM31.596,64.838L31.596,38.83L38.244,38.83L38.244,64.838L31.596,64.838ZM42.73,46.574C42.73,43.583 42.621,41.074 42.513,38.83L48.296,38.83L48.62,42.728L48.784,42.728C49.972,40.7 52.837,38.242 57.216,38.242C61.81,38.242 66.569,41.18 66.569,49.404L66.569,64.838L59.92,64.838L59.92,50.152C59.92,46.414 58.514,43.583 54.893,43.583C52.245,43.583 50.407,45.453 49.704,47.429C49.487,47.963 49.38,48.764 49.38,49.512L49.38,64.838L42.73,64.838L42.73,46.574ZM94.782,61.047C94.782,66.494 93.647,70.393 90.891,72.848C88.19,75.252 84.353,76 80.729,76C77.379,76 73.811,75.252 71.541,73.918L73,68.951C74.676,69.912 77.484,70.926 80.676,70.926C85,70.926 88.244,68.682 88.244,63.076L88.244,60.832L88.135,60.832C86.621,63.129 83.971,64.678 80.459,64.678C73.918,64.678 69.27,59.338 69.27,51.967C69.27,43.423 74.891,38.242 81.215,38.242C85.268,38.242 87.594,40.166 88.838,42.302L88.943,42.302L89.216,38.83L94.999,38.83C94.892,40.592 94.78,42.728 94.78,46.308L94.78,61.047L94.782,61.047ZM88.136,49.244C88.136,48.603 88.083,48.015 87.921,47.482C87.216,45.078 85.325,43.262 82.513,43.262C78.783,43.262 76.027,46.467 76.027,51.753C76.027,56.185 78.297,59.765 82.461,59.765C84.945,59.765 87.109,58.161 87.865,55.759C88.084,55.118 88.136,54.21 88.136,53.462L88.136,49.244Z" style="fill-rule:nonzero;"/>
</svg>
