<?xml version="1.0" encoding="UTF-8" standalone="no"?>
<!DOCTYPE svg PUBLIC "-//W3C//DTD SVG 1.1//EN" "http://www.w3.org/Graphics/SVG/1.1/DTD/svg11.dtd">
<svg width="100%" height="100%" viewBox="0 0 100 100" version="1.1" xmlns="http://www.w3.org/2000/svg" xmlns:xlink="http://www.w3.org/1999/xlink" xml:space="preserve" xmlns:serif="http://www.serif.com/" style="fill-rule:evenodd;clip-rule:evenodd;stroke-linejoin:round;stroke-miterlimit:2;">
    <path id="Podcast" d="M5.091,53.51C5.063,52.898 5,52.3 5,51.684C5,25.9 25.146,5 50,5C74.854,5 95,25.9 95,51.684C95,52.3 94.932,52.899 94.912,53.51C93.977,28.583 74.26,8.656 50,8.656C25.739,8.656 6.022,28.583 5.091,53.51ZM50,25.622C65.164,25.622 77.527,37.913 78.425,53.41C78.459,52.81 78.513,52.219 78.513,51.614C78.513,35.276 65.749,22.035 50,22.035C34.251,22.035 21.487,35.276 21.487,51.614C21.487,52.218 21.541,52.81 21.574,53.41C22.473,37.913 34.835,25.622 50,25.622ZM50,54.467C42.487,54.467 42.487,75 50,75C57.513,75 57.513,54.467 50,54.467Z" style="fill:rgb(151,151,151);fill-rule:nonzero;"/>
</svg>
