<?xml version="1.0" encoding="UTF-8" standalone="no"?>
<!DOCTYPE svg PUBLIC "-//W3C//DTD SVG 1.1//EN" "http://www.w3.org/Graphics/SVG/1.1/DTD/svg11.dtd">
<svg width="100%" height="100%" viewBox="0 0 100 100" version="1.1" xmlns="http://www.w3.org/2000/svg" xmlns:xlink="http://www.w3.org/1999/xlink" xml:space="preserve" xmlns:serif="http://www.serif.com/" style="fill-rule:evenodd;clip-rule:evenodd;stroke-linejoin:round;stroke-miterlimit:2;">
    <path id="Posterous" d="M30.757,95L30.757,60.946L31.022,60.314L32.008,60.314L32.193,60.626C35.883,66.699 43.054,70.327 51.381,70.327C65.625,70.327 80,59.923 80,36.681C80,18.023 69.052,5 53.369,5C43.487,5 35.794,9.131 31.134,16.953L30.693,17.257L29.738,17.257L29.081,6.318L-1,6.318C-0.728,12.502 -0.495,18.742 -0.495,26.517L-0.495,95L30.757,95ZM30.757,32.453C30.757,31.207 31.022,29.688 31.567,27.7C33.676,19.031 41.169,12.973 49.792,12.973C61.39,12.973 69.485,22.938 69.485,37.207C69.485,52.563 61.598,62.488 49.391,62.488C40.792,62.488 33.516,56.845 31.31,48.448C30.934,47.074 30.757,45.508 30.757,43.526L30.757,32.453Z" style="fill-rule:nonzero;"/>
</svg>
