<?xml version="1.0" encoding="UTF-8" standalone="no"?>
<!DOCTYPE svg PUBLIC "-//W3C//DTD SVG 1.1//EN" "http://www.w3.org/Graphics/SVG/1.1/DTD/svg11.dtd">
<svg width="100%" height="100%" viewBox="0 0 100 100" version="1.1" xmlns="http://www.w3.org/2000/svg" xmlns:xlink="http://www.w3.org/1999/xlink" xml:space="preserve" xmlns:serif="http://www.serif.com/" style="fill-rule:evenodd;clip-rule:evenodd;stroke-linejoin:round;stroke-miterlimit:2;">
    <path id="Qik" d="M70.279,95L82.626,95C84.277,84.473 85.683,75.075 87.177,65.69C88.701,56.04 91.26,46.565 92.06,36.592C93.614,16.764 81.747,6.412 63.168,5.18C42.863,3.804 29.08,10.455 20.027,19.578C13.121,26.502 8.452,35.01 7.847,46.281C6.91,64.304 20.526,78.123 44.016,76.17C46.674,75.926 49.418,75.183 51.909,74.06C55.6,72.439 58.102,69.578 61.052,67.77C58.824,78.261 54.819,94.846 70.279,95Z" style="fill-rule:nonzero;"/>
</svg>
