<?xml version="1.0" encoding="UTF-8" standalone="no"?>
<!DOCTYPE svg PUBLIC "-//W3C//DTD SVG 1.1//EN" "http://www.w3.org/Graphics/SVG/1.1/DTD/svg11.dtd">
<svg width="100%" height="100%" viewBox="0 0 100 100" version="1.1" xmlns="http://www.w3.org/2000/svg" xmlns:xlink="http://www.w3.org/1999/xlink" xml:space="preserve" xmlns:serif="http://www.serif.com/" style="fill-rule:evenodd;clip-rule:evenodd;stroke-linejoin:round;stroke-miterlimit:2;">
    <path id="Quora" d="M71.018,77.767C82.41,70.621 90.002,37.846 90.002,23.27C90.002,0.877 10.002,0.877 10.002,23.27C10.002,45.665 27.908,83.817 50,83.817C53.25,83.817 56.406,83.415 59.43,82.672C63.227,89.58 69.012,94.469 81.291,92.132C81.291,92.132 73.416,83.279 71.018,77.767ZM70.738,48.631C70.738,55.401 68.584,61.545 65.084,66.084C60.688,61.404 53.797,57.557 45.053,58.047L45.053,58.869C45.053,58.869 50.985,66.251 55.045,73.229C53.524,73.676 51.94,73.919 50.307,73.919C39.022,73.919 29.878,62.598 29.878,48.63L29.878,18.183C29.878,4.216 70.739,4.216 70.739,18.183C70.738,19.977 70.738,46.839 70.738,48.631Z" style="fill-rule:nonzero;"/>
</svg>
