<?xml version="1.0" encoding="UTF-8" standalone="no"?>
<!DOCTYPE svg PUBLIC "-//W3C//DTD SVG 1.1//EN" "http://www.w3.org/Graphics/SVG/1.1/DTD/svg11.dtd">
<svg width="100%" height="100%" viewBox="0 0 100 100" version="1.1" xmlns="http://www.w3.org/2000/svg" xmlns:xlink="http://www.w3.org/1999/xlink" xml:space="preserve" xmlns:serif="http://www.serif.com/" style="fill-rule:evenodd;clip-rule:evenodd;stroke-linejoin:round;stroke-miterlimit:2;">
    <path id="Readernaut" d="M0.252,41.273C2.353,34.145 15.017,32.828 16.023,32.648C21.592,19.535 34.736,10.32 50.066,10.32C65.425,10.32 78.591,19.571 84.138,32.722C84.298,32.761 84.478,32.806 84.699,32.872L84.699,25.244C82.73,24.449 90.367,24.941 87.982,25.494L87.982,34.515C89.724,35.779 97.552,37.859 98.558,41.273C98.558,41.273 100.369,50.019 97.404,52.226C97.404,52.226 89.955,54.265 85.754,55.837C85.428,57.066 85.045,58.273 84.598,59.446C83.043,59.69 81.352,59.989 79.577,60.355C82.155,55.879 83.624,50.76 83.624,45.32C83.624,27.811 68.454,13.618 49.739,13.618C31.028,13.618 15.858,27.811 15.858,45.32C15.858,50.911 17.407,56.159 20.122,60.719C18.581,60.375 17.101,60.083 15.692,59.83C15.194,58.577 14.778,57.285 14.421,55.969C14.398,55.961 14.382,55.957 14.36,55.949C9.917,54.363 1.405,52.224 1.405,52.224C-1.559,50.02 0.252,41.273 0.252,41.273ZM49,90.356C36.02,74.721 4,75.243 4,75.243C32.99,75.378 49,95.002 49,95.002L49,95C49,95 65.01,75.377 94,75.242C94,75.242 61.982,74.721 49,90.356ZM79.619,50.822C79.619,54.556 78.91,58.125 77.627,61.416C67.738,63.648 55.779,67.931 49,76.094L49,76.095C42.504,68.268 31.232,64.005 21.596,61.699C20.248,58.331 19.494,54.665 19.494,50.823C19.494,34.469 32.955,65.212 49.557,65.212C66.16,65.211 79.619,34.469 79.619,50.822ZM32,49.453C33.861,49.453 28.627,44.297 28.627,46.132C28.627,47.967 30.136,49.453 32,49.453Z" style="fill-rule:nonzero;"/>
</svg>
