<?xml version="1.0" encoding="UTF-8" standalone="no"?>
<!DOCTYPE svg PUBLIC "-//W3C//DTD SVG 1.1//EN" "http://www.w3.org/Graphics/SVG/1.1/DTD/svg11.dtd">
<svg width="100%" height="100%" viewBox="0 0 100 100" version="1.1" xmlns="http://www.w3.org/2000/svg" xmlns:xlink="http://www.w3.org/1999/xlink" xml:space="preserve" xmlns:serif="http://www.serif.com/" style="fill-rule:evenodd;clip-rule:evenodd;stroke-linejoin:round;stroke-miterlimit:2;">
    <g id="Robo.to" transform="matrix(1.40914,0,0,1.40914,-63.5496,-25.3717)">
        <path d="M57.689,40.929C57.689,39.125 59.138,37.663 60.929,37.663C62.716,37.663 64.166,39.125 64.166,40.929C64.166,42.733 62.716,44.196 60.929,44.196C59.139,44.195 57.689,42.732 57.689,40.929ZM45.032,86.534C45.032,86.534 44.871,53.283 45.06,33.732C45.139,25.614 49.071,19.859 50,19.825C53.168,19.94 56.822,20.55 60.821,22.057C74.296,27.137 75.164,43.469 75.164,43.469L75.164,52.429C78.727,52.666 81.547,55.649 81.547,59.301C81.547,59.301 82.066,86.085 79.681,86.085C77.297,86.085 77.814,65.44 77.814,65.44C77.011,65.855 76.112,66.104 75.165,66.169L75.165,70.471C75.189,70.819 75.218,71.164 75.218,71.52C75.218,71.897 75.193,72.27 75.165,72.643L75.165,72.743L75.16,72.743C74.585,79.911 69.024,85.654 61.975,86.437L61.981,86.534L45.032,86.534ZM57.207,58.956C57.207,57.8 56.277,56.86 55.129,56.86C53.979,56.86 53.049,57.799 53.049,58.956C53.049,60.114 53.979,61.054 55.129,61.054C56.277,61.054 57.207,60.114 57.207,58.956ZM62.324,58.956C62.324,57.8 61.394,56.86 60.246,56.86C59.098,56.86 58.166,57.799 58.166,58.956C58.166,60.114 59.098,61.054 60.246,61.054C61.394,61.054 62.324,60.114 62.324,58.956ZM67.443,58.956C67.443,57.8 66.513,56.86 65.365,56.86C64.215,56.86 63.285,57.799 63.285,58.956C63.285,60.114 64.215,61.054 65.365,61.054C66.514,61.054 67.443,60.114 67.443,58.956ZM49.769,27.141C47.302,27.188 49.111,46.814 49.884,46.745C49.913,46.748 49.96,46.753 49.999,46.755C50.04,46.753 50.086,46.748 50.114,46.745C50.886,46.813 55.739,47.237 57.062,47.462C58.502,47.703 61.676,47.941 63.18,47.462C63.18,47.462 67.497,47.099 67.497,41.534C67.497,41.534 67.497,35.364 63.18,31.614C58.992,27.977 52.698,27.188 50.228,27.141L50.228,27.137C50.194,27.137 50.15,27.14 50.114,27.14C50.077,27.14 50.032,27.137 49.999,27.137C49.964,27.137 49.92,27.14 49.884,27.14C49.847,27.14 49.803,27.137 49.769,27.137L49.769,27.141Z" style="fill-rule:nonzero;"/>
    </g>
</svg>
