<?xml version="1.0" encoding="UTF-8" standalone="no"?>
<!DOCTYPE svg PUBLIC "-//W3C//DTD SVG 1.1//EN" "http://www.w3.org/Graphics/SVG/1.1/DTD/svg11.dtd">
<svg width="100%" height="100%" viewBox="0 0 100 100" version="1.1" xmlns="http://www.w3.org/2000/svg" xmlns:xlink="http://www.w3.org/1999/xlink" xml:space="preserve" xmlns:serif="http://www.serif.com/" style="fill-rule:evenodd;clip-rule:evenodd;stroke-linejoin:round;stroke-miterlimit:2;">
    <path id="RSS" d="M5.01,35.604L5.01,52.789C16.229,52.796 26.84,57.203 34.781,65.156C42.72,73.084 47.109,83.711 47.127,94.969L47.133,94.969L47.133,95L64.389,95C64.375,78.63 57.721,63.802 46.963,53.036C36.203,42.272 21.381,35.614 5.01,35.604ZM5.041,5L5.041,22.177C45.145,22.206 77.746,54.858 77.773,95L95,95C94.988,70.19 84.904,47.712 68.607,31.404C52.305,15.101 29.842,5.011 5.041,5Z" style="fill:rgb(194,194,194);fill-rule:nonzero;"/>
</svg>
