<?xml version="1.0" encoding="UTF-8" standalone="no"?>
<!DOCTYPE svg PUBLIC "-//W3C//DTD SVG 1.1//EN" "http://www.w3.org/Graphics/SVG/1.1/DTD/svg11.dtd">
<svg width="100%" height="100%" viewBox="0 0 100 100" version="1.1" xmlns="http://www.w3.org/2000/svg" xmlns:xlink="http://www.w3.org/1999/xlink" xml:space="preserve" xmlns:serif="http://www.serif.com/" style="fill-rule:evenodd;clip-rule:evenodd;stroke-linejoin:round;stroke-miterlimit:2;">
    <path id="Scribd" d="M31.342,33.763C33.608,35.732 49.916,95 42.615,95C35.506,95 36.262,82.797 42.215,82.797C46.445,82.797 30.453,47.999 27.883,46.389C25.315,44.772 23.092,42.852 21.217,40.623C19.35,38.393 17.973,36.17 17.102,33.963C16.233,31.751 15.795,29.389 15.795,26.871C15.795,20.815 18.242,15.658 23.137,11.395C28.033,7.131 33.971,5 40.951,5C45.576,5 50.271,5.995 55.027,7.986C58.986,9.636 62.355,12.049 65.201,15.137C67.238,16.919 68.551,19.497 68.551,22.398C68.551,27.759 49.355,19.637 49.904,18.42C47.943,17.449 45.332,16.937 41.986,16.937C37.814,16.937 34.427,17.874 31.834,19.746C29.236,21.625 27.938,24.033 27.938,26.992C27.938,29.55 29.077,31.805 31.342,33.763Z" style="fill-rule:nonzero;"/>
</svg>
