<?xml version="1.0" encoding="UTF-8" standalone="no"?>
<!DOCTYPE svg PUBLIC "-//W3C//DTD SVG 1.1//EN" "http://www.w3.org/Graphics/SVG/1.1/DTD/svg11.dtd">
<svg width="100%" height="100%" viewBox="0 0 100 100" version="1.1" xmlns="http://www.w3.org/2000/svg" xmlns:xlink="http://www.w3.org/1999/xlink" xml:space="preserve" xmlns:serif="http://www.serif.com/" style="fill-rule:evenodd;clip-rule:evenodd;stroke-linejoin:round;stroke-miterlimit:2;">
    <path id="ShareThis" d="M68.923,32.958L68.923,67.024C71.683,64.686 75.216,63.227 79.118,63.227C87.89,63.228 95,70.338 95,79.109C95,87.89 87.89,95 79.118,95C70.338,95 63.236,87.89 63.236,79.109C63.236,78.793 63.306,78.511 63.324,78.204L63.324,21.787C63.306,21.479 63.236,21.189 63.236,20.873C63.236,12.11 70.338,5 79.118,5C87.89,5 95,12.11 95,20.873C95,29.653 87.89,36.764 79.118,36.764C75.207,36.764 71.682,35.296 68.923,32.958Z" style="fill:rgb(69,69,69);fill-rule:nonzero;"/>
</svg>
