<?xml version="1.0" encoding="UTF-8" standalone="no"?>
<!DOCTYPE svg PUBLIC "-//W3C//DTD SVG 1.1//EN" "http://www.w3.org/Graphics/SVG/1.1/DTD/svg11.dtd">
<svg width="100%" height="100%" viewBox="0 0 100 100" version="1.1" xmlns="http://www.w3.org/2000/svg" xmlns:xlink="http://www.w3.org/1999/xlink" xml:space="preserve" xmlns:serif="http://www.serif.com/" style="fill-rule:evenodd;clip-rule:evenodd;stroke-linejoin:round;stroke-miterlimit:2;">
    <g id="SlideShare" transform="matrix(2.10928,0,0,2.10928,-108.155,-38.6902)">
        <path d="M93.62,40.316C90.183,46.907 83.004,48.914 75.987,52.597L75.987,66.824C75.987,68.83 73.402,80.5 63.544,80.5C53.684,80.5 50.43,74.854 50.43,72.515L50.43,59.333C49.462,59.1 48.509,58.767 47.591,58.288C47.591,63.65 47.671,46.013 50.008,48.186C50.133,48.302 50.279,48.425 50.429,48.547L50.429,46.907C50.429,44.901 55.776,44.062 58.949,44.062C67.662,44.062 68.695,48.803 73.145,48.803C82.904,48.803 87.77,39.817 90.779,36.465C93.786,33.12 96.853,34.121 93.62,40.316ZM63.688,43.684C69.177,43.684 73.627,34.96 73.627,29.458C73.627,23.957 53.75,23.957 53.75,29.458C53.75,34.96 58.201,43.684 63.688,43.684Z" style="fill-rule:nonzero;"/>
    </g>
</svg>
