<?xml version="1.0" encoding="UTF-8" standalone="no"?>
<!DOCTYPE svg PUBLIC "-//W3C//DTD SVG 1.1//EN" "http://www.w3.org/Graphics/SVG/1.1/DTD/svg11.dtd">
<svg width="100%" height="100%" viewBox="0 0 100 100" version="1.1" xmlns="http://www.w3.org/2000/svg" xmlns:xlink="http://www.w3.org/1999/xlink" xml:space="preserve" xmlns:serif="http://www.serif.com/" style="fill-rule:evenodd;clip-rule:evenodd;stroke-linejoin:round;stroke-miterlimit:2;">
    <path id="SoundCloud" d="M5,59.024C5,62.066 6.385,64.787 8.568,66.621L8.568,51.429C6.385,53.259 5,55.982 5,59.024M12.342,49.432L12.342,68.615C13.233,68.862 14.174,69 15.143,69L16.117,69L16.117,49.094C15.792,49.067 15.467,49.049 15.137,49.049C14.165,49.049 13.23,49.184 12.342,49.432M20.678,50.677C20.42,50.512 20.163,50.36 19.889,50.22L19.889,69L23.662,69L23.662,43.881C22.16,45.841 21.113,48.155 20.678,50.677M27.437,40.349L27.437,69L31.211,69L31.211,38.491C29.862,38.945 28.596,39.577 27.437,40.349M34.984,37.71L34.984,69L38.758,69L38.758,37.825C37.985,37.71 37.189,37.65 36.378,37.65C35.906,37.65 35.441,37.673 34.984,37.71M44.612,39.916C43.38,39.186 42.054,38.61 40.646,38.226L40.646,69L46.306,69L46.306,37.646C45.688,38.359 45.12,39.12 44.612,39.916M48.195,35.754L48.195,69L84.047,69L84.047,68.956C91.596,68.473 95,63.79 95,58.075C95,52.04 90.437,47.15 84.297,47.15C82.72,47.15 81.423,47.475 80.052,48.063C79.07,38.481 70.941,31 60.932,31C56.036,31 51.586,32.793 48.195,35.754" style="fill:white;fill-rule:nonzero;"/>
</svg>
