<?xml version="1.0" encoding="UTF-8" standalone="no"?>
<!DOCTYPE svg PUBLIC "-//W3C//DTD SVG 1.1//EN" "http://www.w3.org/Graphics/SVG/1.1/DTD/svg11.dtd">
<svg width="100%" height="100%" viewBox="0 0 100 100" version="1.1" xmlns="http://www.w3.org/2000/svg" xmlns:xlink="http://www.w3.org/1999/xlink" xml:space="preserve" xmlns:serif="http://www.serif.com/" style="fill-rule:evenodd;clip-rule:evenodd;stroke-linejoin:round;stroke-miterlimit:2;">
    <path id="Squarespace" d="M21.729,34.615L48.754,7.428C55.539,0.606 66.535,0.606 73.316,7.428C74.94,9.138 74.864,11.905 73.193,13.586C71.496,15.294 68.751,15.294 67.05,13.586L66.64,13.11C63.23,10.202 58.113,10.367 54.894,13.607L27.262,41.4C25.442,43.087 22.694,43.087 20.999,41.382C19.302,39.677 19.302,36.91 20.999,35.205C21.227,34.978 21.47,34.782 21.729,34.615ZM82.403,35.206C80.706,33.501 77.96,33.501 76.263,35.206C76.037,35.436 75.839,35.682 75.671,35.943L48.755,63.019C45.363,66.429 26.864,87.429 23.473,84.019L23.35,84C21.656,82.295 18.908,82.295 17.21,84C15.516,85.702 15.516,88.472 17.21,90.174C17.427,90.391 17.658,90.582 17.902,90.747C24.722,97.01 48.299,75.829 54.894,69.195L82.403,41.383C84.097,39.678 84.097,36.911 82.403,35.206ZM40.149,53.144C39.892,53.314 39.646,53.509 39.421,53.736C37.724,55.439 37.724,58.208 39.421,59.91C41.116,61.615 43.863,61.615 45.684,59.931L73.316,32.133C76.708,28.723 82.207,28.723 85.595,32.133C88.991,35.545 88.991,41.078 85.595,44.488L59.394,70.969C62.789,74.379 68.285,74.379 71.676,70.969L91.738,50.665C98.518,43.843 98.518,32.782 91.738,25.957C84.958,19.139 73.96,19.139 67.176,25.957L40.149,53.144ZM36.472,50.665L63.981,22.853C65.677,21.146 65.677,18.379 63.981,16.677C62.287,14.97 59.536,14.97 57.841,16.677C57.613,16.902 57.417,17.151 57.252,17.412L30.333,44.489C26.941,47.901 21.444,47.901 18.054,44.489C14.659,41.079 14.659,35.546 18.054,32.134L44.255,5.656C40.865,2.243 35.364,2.243 31.973,5.656L11.911,25.957C5.128,32.782 5.128,43.843 11.911,50.665C18.694,57.489 29.694,57.489 36.472,50.665Z" style="fill-rule:nonzero;"/>
</svg>
