<?xml version="1.0" encoding="UTF-8" standalone="no"?>
<!DOCTYPE svg PUBLIC "-//W3C//DTD SVG 1.1//EN" "http://www.w3.org/Graphics/SVG/1.1/DTD/svg11.dtd">
<svg width="100%" height="100%" viewBox="0 0 100 100" version="1.1" xmlns="http://www.w3.org/2000/svg" xmlns:xlink="http://www.w3.org/1999/xlink" xml:space="preserve" xmlns:serif="http://www.serif.com/" style="fill-rule:evenodd;clip-rule:evenodd;stroke-linejoin:round;stroke-miterlimit:2;">
    <path id="Steam" d="M88.265,38.963C88.265,43.545 84.537,47.261 79.938,47.261C75.334,47.261 71.608,43.545 71.608,38.963C71.608,34.381 75.335,30.666 79.938,30.666C84.537,30.666 88.265,34.381 88.265,38.963ZM84.91,52.982L23.817,58.175C21.847,59.665 19.398,60.56 16.734,60.56C10.254,60.56 5,55.325 5,48.869C5,42.414 10.254,37.181 16.734,37.181C22.306,37.181 26.96,41.051 28.161,46.236L65.017,39.519C65.007,39.302 64.985,39.088 64.985,38.869C64.985,30.614 71.704,23.922 79.992,23.922C88.28,23.922 95,30.614 95,38.869C95,45.409 90.779,50.953 84.91,52.982ZM24.112,44.868C22.71,42.354 20.019,40.651 16.928,40.651C12.39,40.651 8.711,44.316 8.711,48.836C8.711,53.356 12.39,57.02 16.928,57.02C17.767,57.02 18.575,56.894 19.337,56.661L15.433,55.342C12.287,53.664 11.103,49.763 12.788,46.629C14.474,43.497 18.39,42.319 21.533,43.997L24.112,44.868ZM68.288,38.905C68.288,45.317 73.506,50.515 79.943,50.515C86.38,50.515 91.602,45.317 91.602,38.905C91.602,32.49 86.38,27.292 79.943,27.292C73.506,27.292 68.288,32.49 68.288,38.905Z"/>
</svg>
