<?xml version="1.0" encoding="UTF-8" standalone="no"?>
<!DOCTYPE svg PUBLIC "-//W3C//DTD SVG 1.1//EN" "http://www.w3.org/Graphics/SVG/1.1/DTD/svg11.dtd">
<svg width="100%" height="100%" viewBox="0 0 100 100" version="1.1" xmlns="http://www.w3.org/2000/svg" xmlns:xlink="http://www.w3.org/1999/xlink" xml:space="preserve" xmlns:serif="http://www.serif.com/" style="fill-rule:evenodd;clip-rule:evenodd;stroke-linejoin:round;stroke-miterlimit:2;">
    <path id="StumbleUpon" d="M95,74.597C95,83.092 88.086,90 79.589,90L77.07,90C68.573,90 61.667,83.092 61.667,74.597L61.667,55.409C61.667,52.428 59.362,49.877 56.38,49.877L35.534,49.877C32.552,49.877 30,52.245 30,55C30,57.852 32.591,60.391 35.651,60.547L38.828,60.716C47.26,61.152 53.906,67.917 53.639,75.794C53.378,83.627 46.328,90 37.924,90L5,90L5,80L37.924,80C40.944,80 43.568,77.924 43.646,75.463C43.73,73.034 41.284,70.859 38.3,70.703L35.13,70.534C26.791,70.104 20,63.131 20,55C20,46.731 26.914,40 35.409,40L56.256,40C64.753,40 71.667,46.914 71.667,55.409L71.667,74.597C71.667,77.578 74.089,80 77.07,80L79.589,80C82.572,80 85,77.578 85,74.597L85,10L93.886,10C94.271,10 94.622,10.091 95,10.111L95,74.597Z" style="fill:rgb(76,76,76);fill-rule:nonzero;"/>
</svg>
