<?xml version="1.0" encoding="UTF-8" standalone="no"?>
<!DOCTYPE svg PUBLIC "-//W3C//DTD SVG 1.1//EN" "http://www.w3.org/Graphics/SVG/1.1/DTD/svg11.dtd">
<svg width="100%" height="100%" viewBox="0 0 100 100" version="1.1" xmlns="http://www.w3.org/2000/svg" xmlns:xlink="http://www.w3.org/1999/xlink" xml:space="preserve" xmlns:serif="http://www.serif.com/" style="fill-rule:evenodd;clip-rule:evenodd;stroke-linejoin:round;stroke-miterlimit:2;">
    <path id="threewords.me" d="M54.129,41.225L67.949,13.649L67.949,12L23.047,12L23.047,0.559L34.129,0.559L34.129,15.279L59.225,15.279C61.008,15.279 63.811,14.902 63.811,14.902L63.811,15.151C63.811,15.151 61.774,16.658 60.372,18.414L38.462,44.358L41.39,50.875C42.029,50.753 44.322,50.627 46.742,50.627C57.697,50.627 66.615,56.519 66.615,67.048C66.615,76.824 58.207,83.844 48.142,83.844C35.277,83.844 26.232,74.065 26.232,74.065L19.609,82.965C19.609,82.965 30.31,95 48.779,95C67.508,95 79.609,81.713 79.609,66.547C79.607,49.496 65.338,42.354 54.129,41.225Z" style="fill-rule:nonzero;"/>
</svg>
