<?xml version="1.0" encoding="UTF-8" standalone="no"?>
<!DOCTYPE svg PUBLIC "-//W3C//DTD SVG 1.1//EN" "http://www.w3.org/Graphics/SVG/1.1/DTD/svg11.dtd">
<svg width="100%" height="100%" viewBox="0 0 100 100" version="1.1" xmlns="http://www.w3.org/2000/svg" xmlns:xlink="http://www.w3.org/1999/xlink" xml:space="preserve" xmlns:serif="http://www.serif.com/" style="fill-rule:evenodd;clip-rule:evenodd;stroke-linejoin:round;stroke-miterlimit:2;">
    <path id="Tribe" d="M86.58,49.387C85.732,49.387 84.918,49.518 84.146,49.75L79.521,41.058C80.404,39.974 80.933,38.59 80.933,37.083C80.933,33.607 78.124,30.791 74.658,30.791C72.607,30.791 44.442,19 40.976,19C37.511,19 34.699,21.816 34.699,25.291C34.699,25.77 34.76,26.235 34.859,26.685C34.859,26.685 16.49,28.642 13.421,28.642C8.771,28.642 5,32.42 5,37.083C5,41.743 8.771,45.522 13.422,45.522C14.908,45.522 16.303,45.132 17.514,44.455C17.514,44.455 30.109,65.323 30.109,67.406C30.109,74.912 36.18,81 43.67,81C50.295,81 55.803,76.235 56.988,69.939L56.994,69.939L79.164,61.824C80.586,64.468 83.373,66.267 86.58,66.267C91.23,66.267 95,62.488 95,57.828C95,53.165 91.23,49.387 86.58,49.387ZM80.943,51.571C79.904,52.516 58.336,62.322 58.336,62.322L58.328,62.323C63.41,59.457 64.574,38.106 60.994,35.039C60.994,35.039 71.334,43.374 74.658,43.374C75.162,43.374 75.648,43.309 76.121,43.196L80.943,51.571Z" style="fill-rule:nonzero;"/>
</svg>
