<?xml version="1.0" encoding="UTF-8" standalone="no"?>
<!DOCTYPE svg PUBLIC "-//W3C//DTD SVG 1.1//EN" "http://www.w3.org/Graphics/SVG/1.1/DTD/svg11.dtd">
<svg width="100%" height="100%" viewBox="0 0 100 100" version="1.1" xmlns="http://www.w3.org/2000/svg" xmlns:xlink="http://www.w3.org/1999/xlink" xml:space="preserve" xmlns:serif="http://www.serif.com/" style="fill-rule:evenodd;clip-rule:evenodd;stroke-linejoin:round;stroke-miterlimit:2;">
    <path id="Tumblr" d="M57.897,78.558C56.384,77.67 54.995,76.142 54.441,74.669C53.881,73.185 53.952,70.179 53.952,64.956L53.952,31.878L74.94,31.878L74.94,25.815L53.953,25.815L53.953,5L41.04,5C40.464,9.636 39.403,13.466 37.864,16.47C36.322,19.478 34.288,22.048 31.738,24.196C29.2,26.34 25.064,27.992 21.5,29.132L11.5,71.878L33.829,71.878L33.829,73.44C33.829,77.56 34.266,80.704 35.135,82.868C36.008,85.03 37.567,87.079 39.819,89.007C42.071,90.914 44.79,92.402 47.98,93.448C51.166,94.483 53.616,95 57.766,95C61.416,95 64.815,94.632 67.966,93.912C71.113,93.174 74.627,91.903 78.5,90.1L78.5,75.901C73.955,78.865 69.384,80.341 64.787,80.341C62.2,80.342 59.913,79.747 57.897,78.558Z" style="fill-rule:nonzero;"/>
</svg>
