<?xml version="1.0" encoding="UTF-8" standalone="no"?>
<!DOCTYPE svg PUBLIC "-//W3C//DTD SVG 1.1//EN" "http://www.w3.org/Graphics/SVG/1.1/DTD/svg11.dtd">
<svg width="100%" height="100%" viewBox="0 0 100 100" version="1.1" xmlns="http://www.w3.org/2000/svg" xmlns:xlink="http://www.w3.org/1999/xlink" xml:space="preserve" xmlns:serif="http://www.serif.com/" style="fill-rule:evenodd;clip-rule:evenodd;stroke-linejoin:round;stroke-miterlimit:2;">
    <path id="vCard" d="M91.656,86.936C91.64,83.102 88.951,83.01 85.738,81.725L70.738,75.717C70.477,75.615 70.22,75.506 69.966,75.393L69.966,75.387C67.299,74.18 64.945,72.5 64.082,71.319L64.048,71.281L64.038,71.262C63.989,71.186 63.936,71.108 63.89,71.033L63.856,70.971L63.85,70.955L63.819,70.917L63.819,70.915C63.419,70.314 63.015,70.045 62.674,70.161L62.653,70.17L62.643,70.173L62.64,70.175L62.621,70.183L62.608,70.186L62.589,70.203C62.183,70.414 62.264,70.183 62.099,69.736C61.693,68.64 61.023,66.552 60.922,66.245C60.766,65.673 60.347,67.148 60.443,65.557L60.614,62.678C60.89,62.381 61.113,62.139 61.265,61.972C62.242,60.854 62.31,57.902 62.8,57.182C63.29,56.461 64.271,56.306 65.25,52.955C66.23,49.601 67.425,44.812 66.165,44.734C65.855,44.713 65.505,44.914 65.142,45.233C65.363,44.002 65.83,41.209 65.936,39.148C66.076,36.433 65.626,9.47 64.082,6.919C63.117,5.324 61.169,3.744 59.228,2.512C58.065,1.77 56.905,1.157 55.956,0.741C53.129,-0.513 44.216,0.063 41.198,0.741C37.759,1.511 35.349,3.669 33.809,6.221C32.271,8.776 31.588,36.434 31.722,39.149C31.787,40.367 32.516,42.422 32.701,43.676C32.806,44.33 32.903,44.335 32.985,44.803C32.856,44.754 32.732,44.727 32.616,44.735C31.355,44.813 32.547,49.602 33.526,52.956C34.508,56.307 35.484,56.462 35.976,57.183C36.466,57.903 36.535,60.855 37.518,61.973C37.673,62.15 37.909,62.408 38.202,62.72L38.389,65.068L38.719,66.375C38.568,65.999 38.27,65.757 38.13,66.247C37.708,67.529 37.286,68.812 36.864,70.094C36.82,70.031 36.751,69.99 36.672,69.985C36.263,69.624 35.714,69.938 35.214,70.771C34.473,72.006 32.02,73.782 29.175,75.067L29.135,75.221L29.095,75.373L29.08,75.434C28.855,75.534 28.631,75.629 28.402,75.719L13.401,81.727C10.192,83.012 7.5,83.104 7.483,86.938L5,100L95,100L91.656,86.936Z" style="fill-rule:nonzero;"/>
</svg>
