<?xml version="1.0" encoding="UTF-8" standalone="no"?>
<!DOCTYPE svg PUBLIC "-//W3C//DTD SVG 1.1//EN" "http://www.w3.org/Graphics/SVG/1.1/DTD/svg11.dtd">
<svg width="100%" height="100%" viewBox="0 0 100 100" version="1.1" xmlns="http://www.w3.org/2000/svg" xmlns:xlink="http://www.w3.org/1999/xlink" xml:space="preserve" xmlns:serif="http://www.serif.com/" style="fill-rule:evenodd;clip-rule:evenodd;stroke-linejoin:round;stroke-miterlimit:2;">
    <path id="Windows" d="M23.373,33.481C29.043,31.22 34.017,30.084 38.569,30C40.959,30 43.215,30.257 45.354,30.754C48.61,31.585 53.116,34.025 54.833,35.005L46.681,62.764C42.527,60.115 37.514,57.542 30.735,57.473L30.729,57.473C26.208,57.473 21.296,58.514 15.604,60.651L23.373,33.481ZM95,42.543C89.83,44.541 84.786,45.559 79.968,45.559C71.91,45.559 65.968,42.778 62.118,40.104L54.036,67.94C59.464,71.414 65.313,73.177 71.45,73.177C76.455,73.177 81.639,71.981 86.871,69.618L86.855,69.425L87.183,69.346L95,42.543Z" style="fill-rule:nonzero;"/>
</svg>
