<?xml version="1.0" encoding="UTF-8" standalone="no"?>
<!DOCTYPE svg PUBLIC "-//W3C//DTD SVG 1.1//EN" "http://www.w3.org/Graphics/SVG/1.1/DTD/svg11.dtd">
<svg width="100%" height="100%" viewBox="0 0 100 100" version="1.1" xmlns="http://www.w3.org/2000/svg" xmlns:xlink="http://www.w3.org/1999/xlink" xml:space="preserve" xmlns:serif="http://www.serif.com/" style="fill-rule:evenodd;clip-rule:evenodd;stroke-linejoin:round;stroke-miterlimit:2;">
    <path id="Wists" d="M1.004,17.907L25.152,17.907C25.866,33.04 28.184,33.74 29.454,47.795C31.148,37.306 36.384,30.902 37.932,17.907L62.077,17.907C62.403,33.463 63.672,31.85 64.306,47.584C66.84,35.838 68.953,31.361 70.857,17.907L99.004,17.907C94.982,45.877 92.383,71.266 88.028,98.907L55.492,98.907C54.163,89.039 52.472,78.553 50.994,66.382C48.881,77.082 46.768,88.623 44.515,98.907L11.98,98.907C7.582,71.31 3.572,47.322 1.004,17.907Z"/>
</svg>
