<?xml version="1.0" encoding="UTF-8" standalone="no"?>
<!DOCTYPE svg PUBLIC "-//W3C//DTD SVG 1.1//EN" "http://www.w3.org/Graphics/SVG/1.1/DTD/svg11.dtd">
<svg width="100%" height="100%" viewBox="0 0 100 100" version="1.1" xmlns="http://www.w3.org/2000/svg" xmlns:xlink="http://www.w3.org/1999/xlink" xml:space="preserve" xmlns:serif="http://www.serif.com/" style="fill-rule:evenodd;clip-rule:evenodd;stroke-linejoin:round;stroke-miterlimit:2;">
    <path id="WordPress__x28_alt_x29_" d="M45.909,61.681C45.909,61.681 56.633,2.727 74.387,12.392C72.134,11.956 69.674,12.446 67.197,13.863C61.397,17.189 59.501,26.603 67.021,31.331C71.718,34.266 68.146,44.666 65.363,48.191C57.819,57.745 45.909,61.681 45.909,61.681ZM27.529,87.029C27.529,87.029 32.199,85.495 36.218,76.602C40.798,66.464 43.436,53.256 41.8,56.097C33.205,71.019 11.354,80.262 27.529,87.029ZM83.724,23.644C84.58,27.701 71.352,21.564 69.684,26.978C67.908,32.726 76.866,32.046 72.672,49.731C69.913,61.365 65.912,81.404 63.443,87.118C79.096,80.129 90,64.527 90,46.389C90,38.081 87.706,30.306 83.724,23.644ZM45.909,61.681L34.404,89.784C37.802,90.598 41.348,91.042 45,91.042C48.781,91.042 52.449,90.573 55.957,89.702L45.909,61.681Z"/>
</svg>
