<?xml version="1.0" encoding="UTF-8" standalone="no"?>
<!DOCTYPE svg PUBLIC "-//W3C//DTD SVG 1.1//EN" "http://www.w3.org/Graphics/SVG/1.1/DTD/svg11.dtd">
<svg width="100%" height="100%" viewBox="0 0 100 100" version="1.1" xmlns="http://www.w3.org/2000/svg" xmlns:xlink="http://www.w3.org/1999/xlink" xml:space="preserve" xmlns:serif="http://www.serif.com/" style="fill-rule:evenodd;clip-rule:evenodd;stroke-linejoin:round;stroke-miterlimit:2;">
    <path id="WordPress" d="M5,50C5,74.855 25.145,95 50,95C74.849,95 95,74.855 95,50C95,25.151 5,25.151 5,50ZM8.468,50C8.468,43.979 31.876,87.375 31.876,87.375C18.024,80.65 8.468,66.438 8.468,50ZM50,91.531C45.924,91.531 41.986,90.937 38.266,89.845L50.73,53.639L63.496,88.61C63.579,88.816 63.681,88.999 63.789,89.175C59.476,90.699 54.833,91.531 50,91.531ZM83.565,49.221C85.934,43.296 91.525,42.778 91.525,50.001C91.525,65.325 83.224,78.699 70.881,85.894L83.565,49.221ZM39.678,75.511C39.678,75.511 78.036,42.769 78.036,47.904C78.036,51.461 76.978,55.932 74.875,61.332L70.731,75.168L48.764,48.259L39.678,75.511Z" style="fill-rule:nonzero;"/>
</svg>
