<?xml version="1.0" encoding="UTF-8" standalone="no"?>
<!DOCTYPE svg PUBLIC "-//W3C//DTD SVG 1.1//EN" "http://www.w3.org/Graphics/SVG/1.1/DTD/svg11.dtd">
<svg width="100%" height="100%" viewBox="0 0 100 100" version="1.1" xmlns="http://www.w3.org/2000/svg" xmlns:xlink="http://www.w3.org/1999/xlink" xml:space="preserve" xmlns:serif="http://www.serif.com/" style="fill-rule:evenodd;clip-rule:evenodd;stroke-linejoin:round;stroke-miterlimit:2;">
    <path id="Yahoo_x21__Messenger" d="M50.001,95C74.855,95 95,74.852 95,50C95,25.146 74.855,5 50.001,5C25.146,5 5,25.146 5,50C5,74.852 25.146,95 50.001,95ZM18.36,44.139L81.64,44.139L81.64,55.863L81.51,55.863C80.196,72.127 66.605,84.92 49.998,84.92C33.394,84.92 19.805,72.127 18.494,55.862L18.36,55.862L18.36,44.139ZM77.344,54.613L21.899,54.613L21.899,47.398L77.343,47.398L77.343,54.613L77.344,54.613Z" style="fill-rule:nonzero;"/>
</svg>
