<?xml version="1.0" encoding="UTF-8" standalone="no"?>
<!DOCTYPE svg PUBLIC "-//W3C//DTD SVG 1.1//EN" "http://www.w3.org/Graphics/SVG/1.1/DTD/svg11.dtd">
<svg width="100%" height="100%" viewBox="0 0 100 100" version="1.1" xmlns="http://www.w3.org/2000/svg" xmlns:xlink="http://www.w3.org/1999/xlink" xml:space="preserve" xmlns:serif="http://www.serif.com/" style="fill-rule:evenodd;clip-rule:evenodd;stroke-linejoin:round;stroke-miterlimit:2;">
    <path id="Yahoo_x21_" d="M77.495,36.349C75.292,36.943 55.143,52.568 53.815,56.402C53.522,57.726 40.191,58.583 39.898,56.519C39.165,54.312 46.134,45.962 49.43,50.535L65.585,35.895L55.983,35.895L87.156,34.386C87.134,34.386 87.095,34.392 87.076,34.398L86.063,35.895L79.574,35.895C78.734,36.08 77.995,36.245 77.495,36.349ZM88.972,71.183L85.867,71.03L82.403,70.608L82.431,76.547L85.164,76.782L88.109,77L88.972,71.183ZM95,42.792C93.952,42.755 84.424,41.853 83.186,41.608L83.332,66.7L88.724,67.136L95,42.792Z" style="fill-rule:nonzero;"/>
</svg>
