<?xml version="1.0" encoding="UTF-8" standalone="no"?>
<!DOCTYPE svg PUBLIC "-//W3C//DTD SVG 1.1//EN" "http://www.w3.org/Graphics/SVG/1.1/DTD/svg11.dtd">
<svg width="100%" height="100%" viewBox="0 0 100 100" version="1.1" xmlns="http://www.w3.org/2000/svg" xmlns:xlink="http://www.w3.org/1999/xlink" xml:space="preserve" xmlns:serif="http://www.serif.com/" style="fill-rule:evenodd;clip-rule:evenodd;stroke-linejoin:round;stroke-miterlimit:2;">
    <path id="Zootool" d="M26.453,45.082C18.172,45.082 24.85,66.762 27.432,64.391C41.051,90.72 44.879,95 54.225,95C64.373,95 74.61,87.257 74.61,80.245C74.61,77.874 73.364,75.779 72.12,75.142C67.847,77.509 64.018,78.786 60.546,78.786C56.095,78.786 53.603,76.78 39.45,55.465C50.218,45.991 65.971,18.516 67.52,15.019C68.848,12.021 71.762,7.368 68.204,7.368C66.509,7.368 41.139,42.441 33.661,48.453C30.813,45.991 29.031,45.082 26.453,45.082Z" style="fill-rule:nonzero;"/>
</svg>
