<?xml version="1.0" encoding="UTF-8" standalone="no"?>
<!DOCTYPE svg PUBLIC "-//W3C//DTD SVG 1.1//EN" "http://www.w3.org/Graphics/SVG/1.1/DTD/svg11.dtd">
<svg width="100%" height="100%" viewBox="0 0 100 100" version="1.1" xmlns="http://www.w3.org/2000/svg" xmlns:xlink="http://www.w3.org/1999/xlink" xml:space="preserve" xmlns:serif="http://www.serif.com/" style="fill-rule:evenodd;clip-rule:evenodd;stroke-linejoin:round;stroke-miterlimit:2;">
    <path id="Zynga" d="M98.553,2.791C97.737,2.666 98.793,62.554 98.793,62.554C98.793,62.554 97.621,68.687 96.197,72.214C95.695,73.054 95.778,78.769 95.778,82.38C95.778,85.993 97.034,91.622 97.034,91.622C97.034,91.622 98.793,92.884 98.542,94.479C98.293,96.076 96.281,97 94.522,97C92.764,97 90.42,95.656 90.42,93.471C90.42,91.287 90.753,86.33 90.586,82.717C90.42,79.104 90.504,76.752 89.917,74.483C89.33,72.214 87.656,66.249 87.488,61.628C86.902,61.628 86.316,61.208 86.316,61.208C86.316,61.208 83.552,64.401 81.627,66.249C81.878,67.509 82.547,69.778 82.547,70.282C82.547,70.786 83.051,71.206 83.888,71.542C84.725,71.88 87.32,73.308 87.237,74.735C87.153,76.163 83.887,76.415 81.04,75.155C80.371,74.819 77.942,66.671 77.607,65.577C77.271,64.485 77.02,63.897 77.44,62.972C77.858,62.05 79.031,59.025 78.864,57.259C78.696,55.495 75.43,52.722 73.253,52.722C71.578,52.722 69.019,55.29 67.14,56.755C64.879,58.521 62.284,61.208 61.614,61.628C60.943,62.05 55.668,71.628 54.663,74.399C54.245,75.491 53.408,80.954 48.971,80.784C46.961,80.616 45.118,78.432 50.813,74.483C52.258,71.143 54.268,67.676 54.393,66.983C54.518,66.29 56.026,57.657 58.539,49.465C61.051,41.274 64.757,37.367 65.446,36.799C66.012,36.36 99.37,2.918 98.553,2.791Z" style="fill-rule:nonzero;"/>
</svg>
